<?xml version="1.0" encoding="UTF-8"?><svg id="v" xmlns="http://www.w3.org/2000/svg" viewBox="0 0 512 452.12"><defs><style>.af{fill:#008cba;}.ag{fill:#e8edee;}</style></defs><path class="af" d="M415.33,409.36H96.67c-18.33,0-33.19-14.86-33.19-33.19V95.87c0-18.33,14.86-33.19,33.19-33.19H415.33c18.33,0,33.19,14.86,33.19,33.19V376.17c0,18.33-14.86,33.19-33.19,33.19Z"/><path class="ag" d="M205.73,210.61c0-6.18,1.99-12.45,5.96-18.8,3.97-6.35,9.77-11.6,17.38-15.77,7.62-4.17,16.5-6.25,26.66-6.25,9.44,0,17.77,1.74,25,5.22,7.23,3.48,12.81,8.22,16.75,14.21,3.94,5.99,5.91,12.5,5.91,19.53,0,5.53-1.12,10.38-3.37,14.55-2.25,4.17-4.92,7.76-8.01,10.79-3.09,3.03-8.64,8.12-16.65,15.28-2.21,2.02-3.99,3.79-5.32,5.32-1.33,1.53-2.33,2.93-2.98,4.2-.65,1.27-1.16,2.54-1.51,3.81-.36,1.27-.9,3.5-1.61,6.69-1.24,6.77-5.11,10.16-11.62,10.16-3.39,0-6.23-1.11-8.54-3.32-2.31-2.21-3.47-5.5-3.47-9.86,0-5.47,.85-10.21,2.54-14.21,1.69-4,3.94-7.52,6.74-10.55,2.8-3.03,6.58-6.62,11.33-10.79,4.17-3.65,7.18-6.4,9.03-8.25s3.42-3.92,4.69-6.2c1.27-2.28,1.9-4.75,1.9-7.42,0-5.21-1.94-9.6-5.81-13.18-3.87-3.58-8.87-5.37-14.99-5.37-7.16,0-12.44,1.81-15.82,5.42-3.39,3.61-6.25,8.94-8.59,15.97-2.21,7.36-6.41,11.04-12.6,11.04-3.65,0-6.72-1.29-9.23-3.86-2.51-2.57-3.76-5.35-3.76-8.35Zm47.66,107.03c-3.97,0-7.44-1.29-10.4-3.86-2.96-2.57-4.44-6.17-4.44-10.79,0-4.1,1.43-7.55,4.3-10.35,2.86-2.8,6.38-4.2,10.55-4.2s7.55,1.4,10.35,4.2c2.8,2.8,4.2,6.25,4.2,10.35,0,4.56-1.46,8.14-4.39,10.74s-6.32,3.91-10.16,3.91Z"/></svg>