<?xml version="1.0" encoding="UTF-8"?><svg id="x" xmlns="http://www.w3.org/2000/svg" xmlns:xlink="http://www.w3.org/1999/xlink" viewBox="0 0 512 452.12"><defs><style>.ax{fill:none;}.ay{fill:#f4d0a1;}.az{fill:#f7b4b4;}.ba{fill:#006b8f;}.bb{fill:#008cba;}.bc{fill:#fff;}.bd{fill:#f0f1f1;}.be{fill:#ffa939;}.bf{fill:#e2e4e5;}.bg{fill:#ce852e;}.bh{fill:#3e3e3f;}.bi{clip-path:url(#z);}.bj{clip-path:url(#y);}.bk{clip-path:url(#ak);}.bl{clip-path:url(#al);}.bm{clip-path:url(#aj);}.bn{clip-path:url(#ae);}.bo{clip-path:url(#ao);}.bp{clip-path:url(#an);}.bq{clip-path:url(#ai);}.br{clip-path:url(#ap);}.bs{clip-path:url(#ab);}.bt{clip-path:url(#ag);}.bu{clip-path:url(#af);}.bv{clip-path:url(#aa);}.bw{clip-path:url(#ah);}.bx{clip-path:url(#ac);}.by{clip-path:url(#ad);}.bz{clip-path:url(#am);}</style><clipPath id="y"><rect class="ax" x="73.52" y="73.62" width="364.97" height="364.97"/></clipPath><clipPath id="z"><rect class="ax" x="73.52" y="73.62" width="364.97" height="364.97"/></clipPath><clipPath id="aa"><rect class="ax" x="73.52" y="73.62" width="364.97" height="364.97"/></clipPath><clipPath id="ab"><rect class="ax" x="73.52" y="73.62" width="364.97" height="364.97"/></clipPath><clipPath id="ac"><rect class="ax" x="73.52" y="73.62" width="364.97" height="364.97"/></clipPath><clipPath id="ad"><rect class="ax" x="73.52" y="73.62" width="364.97" height="364.97"/></clipPath><clipPath id="ae"><rect class="ax" x="73.52" y="73.62" width="364.97" height="364.97"/></clipPath><clipPath id="af"><rect class="ax" x="73.52" y="73.62" width="364.97" height="364.97"/></clipPath><clipPath id="ag"><rect class="ax" x="73.52" y="73.62" width="364.97" height="364.97"/></clipPath><clipPath id="ah"><rect class="ax" x="73.52" y="73.62" width="364.97" height="364.97"/></clipPath><clipPath id="ai"><rect class="ax" x="73.52" y="73.62" width="364.97" height="364.97"/></clipPath><clipPath id="aj"><rect class="ax" x="73.52" y="73.62" width="364.97" height="364.97"/></clipPath><clipPath id="ak"><rect class="ax" x="73.52" y="73.62" width="364.97" height="364.97"/></clipPath><clipPath id="al"><rect class="ax" x="73.52" y="73.62" width="364.97" height="364.97"/></clipPath><clipPath id="am"><rect class="ax" x="73.52" y="73.62" width="364.97" height="364.97"/></clipPath><clipPath id="an"><rect class="ax" x="73.52" y="73.62" width="364.97" height="364.97"/></clipPath><clipPath id="ao"><rect class="ax" x="73.52" y="73.62" width="364.97" height="364.97"/></clipPath><clipPath id="ap"><rect class="ax" x="73.52" y="73.62" width="364.97" height="364.97"/></clipPath></defs><rect class="bg" x="63.48" y="66.01" width="385.04" height="346.68" rx="33.19" ry="33.19"/><g class="bj"><path class="bc" d="M149.83,162.68c0-7.04,5.7-12.74,12.74-12.74h93.43l53.09,44.59v155.01c0,7.04-5.7,12.74-12.74,12.74H162.57c-7.04,0-12.74-5.7-12.74-12.74V162.68Z"/></g><g class="bi"><path class="bd" d="M256,149.94v31.85c0,7.04,5.7,12.74,12.74,12.74h40.35l-53.09-44.59Z"/></g><g class="bv"><polygon class="ay" points="328.99 211.32 345.58 176.48 362.17 211.32 362.17 339.05 328.99 339.05 328.99 211.32"/></g><g class="bs"><path class="az" d="M362.17,352.33c0,5.5-4.46,9.95-9.95,9.95h-13.27c-5.5,0-9.95-4.46-9.95-9.95v-6.64h33.18v6.64Z"/></g><g class="bx"><path class="bf" d="M279.23,222.93c0,1.82-1.49,3.32-3.32,3.32h-49.77c-1.82,0-3.32-1.49-3.32-3.32s1.49-3.32,3.32-3.32h49.77c1.82,0,3.32,1.49,3.32,3.32Z"/></g><g class="by"><path class="bf" d="M259.32,239.52c0,1.82-1.49,3.32-3.32,3.32h-29.86c-1.82,0-3.32-1.49-3.32-3.32s1.49-3.32,3.32-3.32h29.86c1.82,0,3.32,1.49,3.32,3.32Z"/></g><g class="bn"><path class="bf" d="M279.23,266.06c0,1.82-1.49,3.32-3.32,3.32h-49.77c-1.82,0-3.32-1.49-3.32-3.32s1.49-3.32,3.32-3.32h49.77c1.82,0,3.32,1.49,3.32,3.32Z"/></g><g class="bu"><path class="bf" d="M259.32,282.65c0,1.82-1.49,3.32-3.32,3.32h-29.86c-1.82,0-3.32-1.49-3.32-3.32s1.49-3.32,3.32-3.32h29.86c1.82,0,3.32,1.49,3.32,3.32Z"/></g><g class="bt"><path class="bf" d="M279.23,309.19c0,1.82-1.49,3.32-3.32,3.32h-49.77c-1.82,0-3.32-1.49-3.32-3.32s1.49-3.32,3.32-3.32h49.77c1.82,0,3.32,1.49,3.32,3.32Z"/></g><g class="bw"><path class="bf" d="M259.32,325.78c0,1.82-1.49,3.32-3.32,3.32h-29.86c-1.82,0-3.32-1.49-3.32-3.32s1.49-3.32,3.32-3.32h29.86c1.82,0,3.32,1.49,3.32,3.32Z"/></g><g class="bq"><path class="be" d="M189.86,246.15l-12.52-12.52c-1.3-1.29-1.3-3.4,0-4.69,1.3-1.3,3.4-1.3,4.69,0l7.39,7.39,14.26-17.12c1.17-1.41,3.26-1.6,4.67-.42,1.41,1.17,1.6,3.26,.42,4.67l-18.92,22.7Z"/></g><g class="bm"><path class="be" d="M189.86,289.29l-12.52-12.52c-1.3-1.29-1.3-3.4,0-4.69,1.3-1.3,3.4-1.3,4.69,0l7.39,7.39,14.26-17.12c1.17-1.41,3.26-1.6,4.67-.42s1.6,3.26,.42,4.67l-18.92,22.7Z"/></g><g class="bk"><path class="be" d="M189.86,332.42l-12.52-12.52c-1.3-1.29-1.3-3.4,0-4.69,1.3-1.3,3.4-1.3,4.69,0l7.39,7.39,14.26-17.12c1.17-1.41,3.26-1.6,4.67-.42s1.6,3.26,.42,4.67l-18.92,22.7Z"/></g><g class="bl"><rect class="bc" x="328.99" y="335.74" width="33.18" height="9.95"/></g><g class="bz"><path class="bh" d="M345.63,176.42l-6.16,12.94c1.7,2.25,3.82,3.65,6.16,3.65s4.46-1.4,6.16-3.65l-6.16-12.94Z"/></g><g class="bp"><path class="bb" d="M353.88,216.29c-3.83,0-7.05-2.59-8.01-6.12-.09-.32-.49-.32-.57,0-.96,3.53-4.18,6.12-8.01,6.12-3.49,0-6.48-2.16-7.7-5.21-.13-.32-.59-.23-.59,.12v127.86h33.18v-127.86c0-.35-.46-.43-.59-.11-1.22,3.05-4.21,5.21-7.7,5.21Z"/></g><g class="bo"><path class="ba" d="M328.99,339.05v-127.76c0-.37,.49-.46,.63-.12,1.24,3.01,4.21,5.12,7.66,5.12,3.85,0,7.08-2.62,8.02-6.17,.05-.17,.28-.15,.28,.03v128.9h-16.59Z"/></g><g class="br"><path class="az" d="M328.99,345.69v6.64c0,5.5,4.46,9.95,9.95,9.95h6.64v-16.59h-16.59Z"/></g><path class="bd" d="M334.15,145.07c-1.25,0-2.22-.35-2.92-1.04-.7-.7-1.04-1.64-1.04-2.84s.35-2.18,1.04-2.81c.7-.62,1.67-.94,2.92-.94h8.06v-35.35h4.46l-10.58,6.41c-.91,.53-1.76,.73-2.56,.61-.79-.12-1.46-.46-2.02-1.01-.55-.55-.92-1.21-1.12-1.98-.19-.77-.13-1.55,.18-2.34,.31-.79,.92-1.45,1.84-1.98l9.94-5.98c.96-.58,1.92-1.07,2.88-1.48,.96-.41,1.85-.61,2.66-.61,1.01,0,1.85,.28,2.52,.83,.67,.55,1.01,1.45,1.01,2.7v40.18h7.34c1.25,0,2.22,.31,2.92,.94,.69,.62,1.04,1.56,1.04,2.81s-.35,2.21-1.04,2.88c-.7,.67-1.67,1.01-2.92,1.01h-24.62Z"/></svg>