<?xml version="1.0" encoding="UTF-8"?><svg id="e" xmlns="http://www.w3.org/2000/svg" viewBox="0 0 512 452.12"><defs><style>.ab{fill:#e8edee;}.ac{fill:#ffa939;}.ad{fill:#ba752b;}.ae{fill:#b3babe;}.af{fill:#ce852e;}.ag{fill:#595959;}.ah{fill:#515151;}</style></defs><path class="ab" d="M73.27,363.81c-.77-2.34-1.02-4.71-1.02-7.15,.06-60.73,.07-121.47,.09-182.2,2.78-1.86,6.08-1.28,9.19-1.28,53.96-.04,107.92-.03,161.88-.03,68.33,0,136.66,0,204.99,.03,3.11,0,6.4-.58,9.19,1.28,0,63.13-.02,126.26-.03,189.39-5.19,20.22-21.11,31.12-45.5,31.12-98.61,0-197.22,.04-295.83-.03-19.27-.01-33.01-7.85-41.47-22.5-1.55-2.68-2.5-5.57-1.5-8.64Z"/><path class="ac" d="M414.65,65.06c23.64-.04,42.83,15.95,42.95,36.04,.11,18.2-.07,36.41-.12,54.61-2.59,1.91-5.75,1.2-8.67,1.21-93.8,.04-187.61,.03-281.41,.03-29.09,0-58.19,.02-87.28-.03-2.61,0-5.41,.55-7.67-1.21-.03-18.91-.52-37.83,.03-56.73,.55-18.78,20.13-33.89,42.79-33.92,1.21,.74,1.58,1.88,1.59,3.01,.08,10.82,.72,21.65-.32,32.45-1.31,2.36-2.27,1.49-3.04-.29-.74-1.73,.09-3.64-.73-5.42-6.32,4.71-9.94,17.22-4.07,26.99,5.92,9.85,15.38,15.1,28.62,14.83,12.81-.26,22.04-5.58,27.2-15.33,5.27-9.97,3.32-19.45-5.05-27.85-1.19-1.19-2.56-2.26-3.02-3.87-.84-7.04-.38-14.09-.31-21.13,.01-1.27,.27-2.55,1.61-3.4,71.48,0,142.95,0,214.43,0,1.21,.74,1.58,1.88,1.59,3.01,.08,10.82,.72,21.65-.32,32.45-1.31,2.36-2.27,1.5-3.04-.29-.74-1.73,.09-3.64-.73-5.42-6.32,4.71-9.94,17.22-4.07,26.99,5.92,9.85,15.38,15.1,28.62,14.83,12.81-.26,22.04-5.58,27.2-15.33,5.27-9.97,3.32-19.45-5.05-27.85-1.19-1.19-2.56-2.26-3.02-3.87-.84-7.04-.38-14.09-.31-21.13,.01-1.27,.27-2.55,1.61-3.4Z"/><path class="ae" d="M73.27,363.81c1.41,12.59,16.78,26.43,32.07,28.99,3.95,.66,7.9,.89,11.91,.89,98.06-.02,196.13-.22,294.19,.14,21.77,.08,40.25-11.44,45.02-28.16,.18-.64,.72-1.21,1.09-1.81-.18,6.11,.63,12.21-.76,18.32-3.93,17.3-20.7,29.52-41.31,29.53-100.33,.05-200.65,.05-300.98,0-23.59-.01-42.21-16.04-42.15-36.21,.01-3.88-1.28-7.9,.9-11.67Z"/><path class="af" d="M457.58,174.46c-1.17,.03-2.34,.1-3.51,.1-126.08,0-252.15,0-378.23,0-1.17,0-2.34-.06-3.51-.1,.03-5.94,.07-11.89,.1-17.83,1.72-.87,3.6-.43,5.4-.43,124.75-.02,249.5-.02,374.24,0,1.8,0,3.68-.43,5.4,.43,.03,5.94,.07,11.89,.1,17.83Z"/><path class="ae" d="M157.74,65.06c.09,8.57,.17,17.14,.26,25.71,1.99,9.53,2.54,18.81-7.38,25.79-6.58,4.64-14.14,5.57-22.06,3.05-7.56-2.4-12.14-7.25-14.07-13.9-.4-1.38-.55-2.82,.55-4.09,.08-12.19,.15-24.37,.22-36.56,.02-6.27-.01-12.54,.09-18.81,.16-9.92,9.64-17.93,21.15-17.95,11.47-.02,20.99,8.03,21.15,17.95,.1,6.27,.06,12.54,.09,18.81Z"/><path class="ae" d="M414.65,65.06c.09,8.57,.17,17.14,.26,25.71,1.58,7.67,2.53,15.31-3.46,22.08-5.23,5.91-12.31,8.88-20.93,7.79-9.36-1.19-15.65-6-18.73-13.68-.7-1.75-1.22-3.59,.15-5.33,.08-12.18,.16-24.37,.23-36.56,.02-6.41-.01-12.81,.09-19.22,.15-9.88,9.79-17.75,21.4-17.54,11.66,.21,20.74,7.79,20.9,17.54,.1,6.41,.07,12.81,.09,19.22Z"/><path class="ad" d="M457.48,156.63c-128.35,0-256.69,0-385.04,0,0-.31,0-.61,0-.92,128.34,0,256.69,0,385.03,0,0,.31,0,.61,0,.92Z"/><path class="af" d="M371.94,101.61c2.39,15.67,20.07,23.27,33.86,14.46,5.64-3.6,8.84-8.44,8.85-14.63,0-3.56,.16-7.12,.25-10.68,13.23,8.86,14.63,28.52,.71,39.7-13.28,10.67-34.51,9.84-46.85-2.19-10.64-10.37-9.68-28.6,2.17-36.22,1.19,3.2-.43,6.54,1.01,9.56Z"/><path class="af" d="M115.04,101.62c1.91,13.39,14.03,20.88,27.95,17.27,8.23-2.13,14.33-8.8,14.69-16.17,.19-3.98,.21-7.97,.31-11.95,13.23,8.86,14.63,28.52,.71,39.7-13.28,10.67-34.52,9.83-46.85-2.19-10.63-10.37-9.67-28.62,2.17-36.22,1.2,3.2-.45,6.54,1.01,9.56Z"/><g><path class="ah" d="M170.92,126.27c-1.29,0-2.61-.09-3.96-.28-1.35-.18-2.62-.46-3.79-.83-1.18-.37-2.25-.83-3.2-1.38-.71-.37-1.2-.85-1.47-1.45-.28-.6-.37-1.2-.28-1.82,.09-.61,.31-1.16,.67-1.63s.83-.78,1.45-.92c.61-.14,1.27-.02,1.98,.34,1.29,.67,2.68,1.18,4.16,1.52,1.49,.34,2.97,.51,4.44,.51,2.21,0,3.8-.34,4.78-1.01,.98-.67,1.47-1.53,1.47-2.58,0-.92-.35-1.63-1.04-2.14-.69-.51-1.88-.93-3.57-1.26l-5.2-1.1c-2.94-.64-5.12-1.71-6.53-3.2-1.41-1.49-2.12-3.44-2.12-5.87,0-1.53,.31-2.94,.94-4.21,.63-1.27,1.52-2.36,2.67-3.27,1.15-.9,2.54-1.59,4.16-2.07,1.62-.48,3.42-.71,5.38-.71,1.69,0,3.36,.2,5.01,.6s3.13,1,4.42,1.79c.58,.37,.99,.83,1.22,1.38,.23,.55,.31,1.13,.23,1.73-.08,.6-.31,1.1-.69,1.52s-.87,.68-1.45,.8c-.58,.12-1.29-.01-2.12-.41-.98-.52-2.05-.9-3.2-1.13-1.15-.23-2.32-.34-3.52-.34-1.29,0-2.38,.17-3.29,.51-.91,.34-1.59,.81-2.05,1.4-.46,.6-.69,1.31-.69,2.14s.31,1.56,.94,2.12c.63,.55,1.74,1,3.33,1.33l5.15,1.1c3.04,.64,5.3,1.68,6.79,3.1s2.23,3.3,2.23,5.63c0,1.53-.32,2.92-.97,4.16-.64,1.24-1.54,2.3-2.69,3.17-1.15,.87-2.53,1.55-4.14,2.02-1.61,.47-3.44,.71-5.5,.71Z"/><path class="ah" d="M192.54,125.81c-1.2,0-2.12-.32-2.76-.97s-.97-1.58-.97-2.81v-24.89c0-1.23,.32-2.16,.97-2.81,.64-.64,1.56-.97,2.76-.97h16.05c.92,0,1.62,.24,2.09,.71s.71,1.16,.71,2.05-.24,1.62-.71,2.09c-.48,.48-1.17,.71-2.09,.71h-12.93v7.59h11.91c.95,0,1.66,.24,2.12,.71s.69,1.17,.69,2.09-.23,1.57-.69,2.05-1.17,.71-2.12,.71h-11.91v8.14h12.93c.92,0,1.62,.24,2.09,.71s.71,1.17,.71,2.09-.24,1.57-.71,2.05-1.17,.71-2.09,.71h-16.05Z"/><path class="ah" d="M227.78,126.27c-1.29,0-2.61-.09-3.96-.28-1.35-.18-2.62-.46-3.79-.83-1.18-.37-2.25-.83-3.2-1.38-.71-.37-1.2-.85-1.47-1.45-.28-.6-.37-1.2-.28-1.82,.09-.61,.31-1.16,.67-1.63s.83-.78,1.45-.92c.61-.14,1.27-.02,1.98,.34,1.29,.67,2.68,1.18,4.16,1.52,1.49,.34,2.97,.51,4.44,.51,2.21,0,3.8-.34,4.78-1.01,.98-.67,1.47-1.53,1.47-2.58,0-.92-.35-1.63-1.04-2.14-.69-.51-1.88-.93-3.57-1.26l-5.2-1.1c-2.94-.64-5.12-1.71-6.53-3.2-1.41-1.49-2.12-3.44-2.12-5.87,0-1.53,.31-2.94,.94-4.21,.63-1.27,1.52-2.36,2.67-3.27,1.15-.9,2.54-1.59,4.16-2.07,1.62-.48,3.42-.71,5.38-.71,1.69,0,3.36,.2,5.01,.6s3.13,1,4.42,1.79c.58,.37,.99,.83,1.22,1.38,.23,.55,.31,1.13,.23,1.73-.08,.6-.31,1.1-.69,1.52s-.87,.68-1.45,.8c-.58,.12-1.29-.01-2.12-.41-.98-.52-2.05-.9-3.2-1.13-1.15-.23-2.32-.34-3.52-.34-1.29,0-2.38,.17-3.29,.51-.91,.34-1.59,.81-2.05,1.4-.46,.6-.69,1.31-.69,2.14s.31,1.56,.94,2.12c.63,.55,1.74,1,3.33,1.33l5.15,1.1c3.04,.64,5.3,1.68,6.79,3.1s2.23,3.3,2.23,5.63c0,1.53-.32,2.92-.97,4.16-.64,1.24-1.54,2.3-2.69,3.17-1.15,.87-2.53,1.55-4.14,2.02-1.61,.47-3.44,.71-5.5,.71Z"/><path class="ah" d="M257.26,126.27c-1.29,0-2.61-.09-3.96-.28-1.35-.18-2.62-.46-3.79-.83-1.18-.37-2.25-.83-3.2-1.38-.71-.37-1.2-.85-1.47-1.45-.28-.6-.37-1.2-.28-1.82,.09-.61,.31-1.16,.67-1.63s.83-.78,1.45-.92c.61-.14,1.27-.02,1.98,.34,1.29,.67,2.68,1.18,4.16,1.52,1.49,.34,2.97,.51,4.44,.51,2.21,0,3.8-.34,4.78-1.01,.98-.67,1.47-1.53,1.47-2.58,0-.92-.35-1.63-1.04-2.14-.69-.51-1.88-.93-3.57-1.26l-5.2-1.1c-2.94-.64-5.12-1.71-6.53-3.2-1.41-1.49-2.12-3.44-2.12-5.87,0-1.53,.31-2.94,.94-4.21,.63-1.27,1.52-2.36,2.67-3.27,1.15-.9,2.54-1.59,4.16-2.07,1.62-.48,3.42-.71,5.38-.71,1.69,0,3.36,.2,5.01,.6s3.13,1,4.42,1.79c.58,.37,.99,.83,1.22,1.38,.23,.55,.31,1.13,.23,1.73-.08,.6-.31,1.1-.69,1.52s-.87,.68-1.45,.8c-.58,.12-1.29-.01-2.12-.41-.98-.52-2.05-.9-3.2-1.13-1.15-.23-2.32-.34-3.52-.34-1.29,0-2.38,.17-3.29,.51-.91,.34-1.59,.81-2.05,1.4-.46,.6-.69,1.31-.69,2.14s.31,1.56,.94,2.12c.63,.55,1.74,1,3.33,1.33l5.15,1.1c3.04,.64,5.3,1.68,6.79,3.1s2.23,3.3,2.23,5.63c0,1.53-.32,2.92-.97,4.16-.64,1.24-1.54,2.3-2.69,3.17-1.15,.87-2.53,1.55-4.14,2.02-1.61,.47-3.44,.71-5.5,.71Z"/><path class="ah" d="M278.7,126.18c-1.13,0-2.01-.32-2.62-.94s-.92-1.53-.92-2.69v-25.9c0-1.2,.31-2.1,.92-2.71s1.49-.92,2.62-.92,2.05,.31,2.67,.92,.92,1.52,.92,2.71v25.9c0,1.17-.3,2.06-.9,2.69s-1.5,.94-2.69,.94Z"/><path class="ah" d="M303.86,126.27c-3.16,0-5.96-.69-8.39-2.07-2.44-1.38-4.32-3.33-5.63-5.84-1.32-2.51-1.98-5.44-1.98-8.79,0-2.51,.38-4.8,1.13-6.85,.75-2.05,1.83-3.82,3.24-5.29,1.41-1.47,3.11-2.59,5.08-3.36,1.98-.77,4.16-1.15,6.55-1.15,3.22,0,6.03,.68,8.44,2.05,2.41,1.36,4.28,3.3,5.61,5.8,1.33,2.5,2,5.42,2,8.76,0,2.55-.38,4.85-1.13,6.9-.75,2.05-1.84,3.83-3.27,5.31-1.43,1.49-3.12,2.62-5.08,3.38-1.96,.77-4.16,1.15-6.58,1.15Zm0-6.03c1.81,0,3.35-.43,4.62-1.29s2.25-2.09,2.94-3.68c.69-1.59,1.04-3.5,1.04-5.7,0-3.37-.76-5.99-2.28-7.84-1.52-1.86-3.63-2.78-6.33-2.78-1.78,0-3.31,.41-4.6,1.24s-2.27,2.03-2.94,3.61-1.01,3.5-1.01,5.77c0,3.34,.76,5.96,2.28,7.84,1.52,1.89,3.61,2.83,6.28,2.83Z"/><path class="ah" d="M328.74,126.18c-1.07,0-1.89-.28-2.46-.85-.57-.57-.85-1.4-.85-2.51v-26.27c0-1.17,.28-2.05,.85-2.65,.57-.6,1.33-.9,2.28-.9,.83,0,1.46,.15,1.91,.46s.96,.81,1.54,1.52l16.15,20.61h-1.29v-19.27c0-1.04,.29-1.85,.87-2.44s1.43-.87,2.53-.87c1.04,0,1.85,.29,2.42,.87,.57,.58,.85,1.4,.85,2.44v26.59c0,1.01-.26,1.81-.78,2.39s-1.23,.87-2.12,.87-1.54-.16-2.05-.48c-.51-.32-1.07-.83-1.68-1.54l-16.1-20.61h1.24v19.27c0,1.1-.28,1.94-.85,2.51-.57,.57-1.39,.85-2.46,.85Z"/></g><path class="ag" d="M313.01,283.22c0,10.96-.67,20.38-2,28.27-1.34,7.89-3.81,15.04-7.42,21.45-4.55,7.89-10.43,13.97-17.64,18.25s-15.24,6.42-24.06,6.42c-10.16,0-19.27-2.87-27.32-8.62-8.05-5.75-14.12-13.7-18.2-23.86-2.07-5.55-3.59-11.68-4.56-18.4-.97-6.72-1.45-13.99-1.45-21.8,0-10.09,.53-19.18,1.6-27.27,1.07-8.09,2.74-15.04,5.01-20.85,3.94-9.62,9.67-16.96,17.19-22,7.52-5.05,16.49-7.57,26.92-7.57,6.88,0,13.13,1.12,18.75,3.36,5.61,2.24,10.54,5.51,14.79,9.83,4.24,4.31,7.83,9.64,10.78,15.99,5.08,11.03,7.62,26.63,7.62,46.82Zm-27.47-2c0-12.23-.74-22.24-2.21-30.02-1.47-7.79-3.94-13.67-7.42-17.64-3.48-3.98-8.29-5.96-14.44-5.96-8.82,0-14.95,4.45-18.4,13.33-3.44,8.89-5.16,22.59-5.16,41.1,0,12.57,.73,22.86,2.21,30.88,1.47,8.02,3.94,14.08,7.42,18.2,3.47,4.11,8.19,6.17,14.13,6.17s10.96-2.14,14.44-6.42c3.47-4.28,5.91-10.39,7.32-18.35,1.4-7.95,2.11-18.38,2.11-31.28Z"/></svg>