<?xml version="1.0" encoding="UTF-8"?><svg xmlns="http://www.w3.org/2000/svg" viewBox="0 0 512 452.12"><defs><style>.ad{fill:#f98888;}.ae{fill:#e8edee;}.af{fill:#fff;}.ag{fill:#ffa939;}.ah{fill:#ba752b;}.ai{fill:#b3babe;}.aj{fill:#ce852e;}.ak{fill:#595959;}.al{fill:#515151;}</style></defs><g id="a"/><g id="b"/><g id="c"/><g id="d"/><g id="e"/><g id="f"/><g id="g"/><g id="h"/><g id="i"/><g id="j"><g><path class="ae" d="M64.45,363.91c-.77-2.34-1.02-4.71-1.02-7.15,.06-60.73,.07-121.47,.09-182.2,2.78-1.86,6.08-1.28,9.19-1.28,53.96-.04,107.92-.03,161.88-.03,68.33,0,136.66,0,204.99,.03,3.11,0,6.4-.58,9.19,1.28,0,63.13-.02,126.26-.03,189.39-5.19,20.22-21.11,31.12-45.5,31.12-98.61,0-197.22,.04-295.83-.03-19.27-.01-33.01-7.85-41.47-22.5-1.55-2.68-2.5-5.57-1.5-8.64Z"/><path class="ag" d="M405.83,65.15c23.64-.04,42.83,15.95,42.95,36.04,.11,18.2-.07,36.41-.12,54.61-2.59,1.91-5.75,1.2-8.67,1.21-93.8,.04-187.61,.03-281.41,.03-29.09,0-58.19,.02-87.28-.03-2.61,0-5.41,.55-7.67-1.21-.03-18.91-.52-37.83,.03-56.73,.55-18.78,20.13-33.89,42.79-33.92,1.21,.74,1.58,1.88,1.59,3.01,.08,10.82,.72,21.65-.32,32.45-1.31,2.36-2.27,1.49-3.04-.29-.74-1.73,.09-3.64-.73-5.42-6.32,4.71-9.94,17.22-4.07,26.99,5.92,9.85,15.38,15.1,28.62,14.83,12.81-.26,22.04-5.58,27.2-15.33,5.27-9.97,3.32-19.45-5.05-27.85-1.19-1.19-2.56-2.26-3.02-3.87-.84-7.04-.38-14.09-.31-21.13,.01-1.27,.27-2.55,1.61-3.4h214.43c1.21,.75,1.58,1.88,1.59,3.02,.08,10.82,.72,21.65-.32,32.45-1.31,2.36-2.27,1.5-3.04-.29-.74-1.73,.09-3.64-.73-5.42-6.32,4.71-9.94,17.22-4.07,26.99,5.92,9.85,15.38,15.1,28.62,14.83,12.81-.26,22.04-5.58,27.2-15.33,5.27-9.97,3.32-19.45-5.05-27.85-1.19-1.19-2.56-2.26-3.02-3.87-.84-7.04-.38-14.09-.31-21.13,.01-1.27,.27-2.55,1.61-3.4Z"/><path class="ai" d="M64.45,363.91c1.41,12.59,16.78,26.43,32.07,28.99,3.95,.66,7.9,.89,11.91,.89,98.06-.02,196.13-.22,294.19,.14,21.77,.08,40.25-11.44,45.02-28.16,.18-.64,.72-1.21,1.09-1.81-.18,6.11,.63,12.21-.76,18.32-3.93,17.3-20.7,29.52-41.31,29.53-100.33,.05-200.65,.05-300.98,0-23.59-.01-42.21-16.04-42.15-36.21,.01-3.88-1.28-7.9,.9-11.67Z"/><path class="aj" d="M448.77,174.56c-1.17,.03-2.34,.1-3.51,.1-126.08,0-252.15,0-378.23,0-1.17,0-2.34-.06-3.51-.1,.03-5.94,.07-11.89,.1-17.83,1.72-.87,3.6-.43,5.4-.43,124.75-.02,249.5-.02,374.24,0,1.8,0,3.68-.43,5.4,.43,.03,5.94,.07,11.89,.1,17.83Z"/><path class="ai" d="M148.93,65.15c.09,8.57,.17,17.14,.26,25.71,1.99,9.53,2.54,18.81-7.38,25.79-6.58,4.64-14.14,5.57-22.06,3.05-7.56-2.4-12.14-7.25-14.07-13.9-.4-1.38-.55-2.82,.55-4.09,.08-12.19,.15-24.37,.22-36.56,.02-6.27-.01-12.54,.09-18.81,.16-9.92,9.64-17.93,21.15-17.95,11.47-.02,20.99,8.03,21.15,17.95,.1,6.27,.06,12.54,.09,18.81Z"/><path class="ai" d="M405.83,65.15l.26,25.71c1.58,7.67,2.53,15.31-3.46,22.08-5.23,5.91-12.31,8.88-20.93,7.79-9.36-1.19-15.65-6-18.73-13.68-.7-1.75-1.22-3.59,.15-5.33,.08-12.18,.16-24.37,.23-36.56,.02-6.41-.01-12.81,.09-19.22,.15-9.88,9.79-17.75,21.4-17.54,11.66,.21,20.74,7.79,20.9,17.54,.1,6.41,.07,12.81,.09,19.22Z"/><path class="ah" d="M448.66,156.72c-128.35,0-256.69,0-385.04,0v-.92c128.35,0,256.69,0,385.03,0v.92Z"/><path class="aj" d="M363.13,101.71c2.39,15.67,20.07,23.27,33.86,14.46,5.64-3.6,8.84-8.44,8.85-14.63,0-3.56,.16-7.12,.25-10.68,13.23,8.86,14.63,28.52,.71,39.7-13.28,10.67-34.51,9.84-46.85-2.19-10.64-10.37-9.68-28.6,2.17-36.22,1.19,3.2-.43,6.54,1.01,9.56Z"/><path class="aj" d="M106.23,101.71c1.91,13.39,14.03,20.88,27.95,17.27,8.23-2.13,14.33-8.8,14.69-16.17,.19-3.98,.21-7.97,.31-11.95,13.23,8.86,14.63,28.52,.71,39.7-13.28,10.67-34.52,9.83-46.85-2.19-10.63-10.37-9.67-28.62,2.17-36.22,1.2,3.2-.45,6.54,1.01,9.56Z"/><g><path class="al" d="M200.07,127.94c-.98,0-1.77-.23-2.37-.69s-1.07-1.18-1.4-2.16l-9.29-26.13c-.43-1.17-.36-2.15,.21-2.97,.57-.81,1.54-1.22,2.92-1.22,1.01,0,1.79,.23,2.35,.69s.98,1.18,1.29,2.16l7.54,22.59h-1.98l8.05-22.59c.34-.98,.78-1.7,1.33-2.16,.55-.46,1.27-.69,2.16-.69s1.55,.23,2.07,.69c.52,.46,.95,1.2,1.29,2.21l7.68,22.54h-1.7l7.68-22.59c.34-.98,.78-1.7,1.33-2.16s1.3-.69,2.25-.69c1.2,0,2.07,.41,2.62,1.22,.55,.81,.61,1.8,.19,2.97l-9.34,26.13c-.4,.98-.88,1.7-1.45,2.16-.57,.46-1.34,.69-2.32,.69s-1.77-.23-2.37-.69c-.6-.46-1.06-1.18-1.4-2.16l-7.27-20.56h1.1l-7.41,20.56c-.37,.98-.84,1.7-1.4,2.16-.57,.46-1.36,.69-2.37,.69Z"/><path class="al" d="M243.36,127.57c-1.2,0-2.12-.32-2.76-.97-.64-.64-.97-1.58-.97-2.81v-24.89c0-1.23,.32-2.16,.97-2.81,.64-.64,1.56-.97,2.76-.97h16.05c.92,0,1.62,.24,2.09,.71,.48,.48,.71,1.16,.71,2.05s-.24,1.62-.71,2.09c-.47,.48-1.17,.71-2.09,.71h-12.93v7.59h11.91c.95,0,1.66,.24,2.12,.71,.46,.48,.69,1.17,.69,2.09s-.23,1.57-.69,2.05c-.46,.48-1.17,.71-2.12,.71h-11.91v8.14h12.93c.92,0,1.62,.24,2.09,.71,.48,.48,.71,1.17,.71,2.09s-.24,1.57-.71,2.05c-.47,.48-1.17,.71-2.09,.71h-16.05Z"/><path class="al" d="M271.19,127.57c-1.2,0-2.12-.32-2.76-.97-.64-.64-.97-1.58-.97-2.81v-24.89c0-1.23,.32-2.16,.97-2.81,.64-.64,1.56-.97,2.76-.97h16.05c.92,0,1.62,.24,2.09,.71,.48,.48,.71,1.16,.71,2.05s-.24,1.62-.71,2.09c-.47,.48-1.17,.71-2.09,.71h-12.93v7.59h11.91c.95,0,1.66,.24,2.12,.71,.46,.48,.69,1.17,.69,2.09s-.23,1.57-.69,2.05c-.46,.48-1.17,.71-2.12,.71h-11.91v8.14h12.93c.92,0,1.62,.24,2.09,.71,.48,.48,.71,1.17,.71,2.09s-.24,1.57-.71,2.05c-.47,.48-1.17,.71-2.09,.71h-16.05Z"/><path class="al" d="M298.83,127.94c-1.13,0-2.01-.32-2.62-.94s-.92-1.53-.92-2.69v-25.94c0-1.17,.31-2.05,.92-2.67s1.49-.92,2.62-.92,2.05,.31,2.67,.92,.92,1.5,.92,2.67v10.9h.09l12.24-12.79c.52-.55,1.07-.97,1.66-1.27s1.23-.44,1.93-.44c1.07,0,1.85,.28,2.32,.83,.48,.55,.68,1.2,.62,1.93-.06,.74-.4,1.41-1.01,2.02l-12.28,12.56,.04-2.99,12.83,13.71c.74,.74,1.11,1.51,1.13,2.32s-.24,1.48-.78,2-1.33,.78-2.37,.78c-.89,0-1.6-.18-2.12-.55-.52-.37-1.12-.89-1.79-1.56l-12.42-13.06h-.09v11.55c0,1.17-.3,2.06-.9,2.69s-1.5,.94-2.69,.94Z"/></g><g><path class="ak" d="M159.65,352.31c-3.56,0-6.33-.99-8.32-2.98-1.99-1.98-2.98-4.69-2.98-8.11s.99-6.23,2.98-8.01c1.98-1.78,4.75-2.67,8.32-2.67h23v-100.81h12.73l-30.18,18.27c-2.6,1.51-5.03,2.09-7.29,1.75-2.26-.34-4.18-1.3-5.75-2.87-1.58-1.57-2.64-3.46-3.18-5.65-.55-2.19-.38-4.41,.51-6.67,.89-2.26,2.63-4.14,5.24-5.65l28.33-17.04c2.74-1.64,5.47-3.04,8.21-4.21,2.74-1.16,5.27-1.75,7.6-1.75,2.88,0,5.27,.79,7.19,2.36,1.92,1.58,2.87,4.14,2.87,7.7v114.56h20.94c3.56,0,6.33,.89,8.32,2.67,1.98,1.78,2.98,4.45,2.98,8.01s-.99,6.3-2.98,8.21c-1.99,1.92-4.76,2.87-8.32,2.87h-70.22Z"/><path class="ak" d="M278.12,352.31c-4.38,0-7.56-.99-9.55-2.98-1.99-1.98-2.98-4.89-2.98-8.73,0-2.33,.62-4.58,1.85-6.77,1.23-2.19,3.01-4.52,5.34-6.98l41.27-43.94c6.29-6.57,10.81-12.56,13.55-17.96,2.74-5.41,4.11-10.85,4.11-16.32,0-6.84-2.16-12.04-6.47-15.6-4.31-3.56-10.57-5.34-18.79-5.34-4.65,0-9.31,.65-13.96,1.95-4.65,1.3-9.38,3.53-14.17,6.67-2.46,1.64-4.76,2.33-6.88,2.05-2.12-.27-3.97-1.16-5.54-2.67-1.57-1.5-2.64-3.35-3.18-5.54-.55-2.19-.45-4.42,.31-6.67,.75-2.26,2.36-4.21,4.83-5.85,5.88-3.97,12.49-6.98,19.81-9.03,7.32-2.05,14.68-3.08,22.07-3.08,10.4,0,19.16,1.58,26.28,4.72,7.12,3.15,12.52,7.73,16.22,13.75,3.7,6.03,5.54,13.35,5.54,21.97,0,5.75-.92,11.36-2.77,16.83-1.85,5.48-4.66,11.02-8.42,16.63-3.77,5.61-8.66,11.57-14.68,17.86l-38.6,40.24v-6.98h60.36c3.7,0,6.5,.89,8.42,2.67,1.92,1.78,2.87,4.45,2.87,8.01s-.96,6.3-2.87,8.21c-1.92,1.92-4.72,2.87-8.42,2.87h-75.55Z"/></g></g><g><circle class="ad" cx="422.99" cy="359.97" r="73.16"/><g><path class="af" d="M398.64,352.7c-.92,0-1.87-.07-2.84-.2s-1.88-.33-2.72-.59-1.61-.59-2.29-.99c-.51-.26-.86-.61-1.06-1.04-.2-.43-.26-.86-.2-1.3,.07-.44,.22-.83,.48-1.17,.25-.34,.6-.56,1.04-.66,.44-.1,.91-.02,1.42,.25,.92,.48,1.92,.85,2.99,1.09,1.07,.24,2.13,.36,3.18,.36,1.58,0,2.73-.24,3.43-.73,.71-.48,1.06-1.1,1.06-1.85,0-.66-.25-1.17-.74-1.53-.5-.36-1.35-.67-2.56-.91l-3.73-.79c-2.11-.46-3.67-1.23-4.69-2.29s-1.52-2.47-1.52-4.21c0-1.1,.22-2.11,.68-3.02,.45-.91,1.09-1.69,1.91-2.34,.82-.65,1.82-1.14,2.99-1.49,1.17-.34,2.45-.51,3.86-.51,1.21,0,2.41,.14,3.6,.43,1.19,.29,2.24,.71,3.17,1.29,.42,.26,.71,.59,.87,.99,.17,.4,.22,.81,.17,1.24s-.22,.79-.5,1.09-.62,.49-1.04,.58c-.42,.09-.92-.01-1.52-.3-.71-.37-1.47-.64-2.29-.81-.83-.17-1.67-.25-2.53-.25-.92,0-1.71,.12-2.36,.36s-1.14,.58-1.47,1.01c-.33,.43-.49,.94-.49,1.54s.22,1.12,.68,1.52c.45,.4,1.25,.71,2.39,.96l3.7,.79c2.18,.46,3.8,1.2,4.87,2.23,1.07,1.02,1.6,2.37,1.6,4.04,0,1.1-.23,2.1-.69,2.99-.46,.89-1.11,1.65-1.93,2.28-.83,.63-1.81,1.11-2.97,1.45-1.15,.34-2.47,.51-3.94,.51Z"/><path class="af" d="M414.15,352.37c-.86,0-1.52-.23-1.98-.69-.46-.46-.69-1.13-.69-2.01v-17.85c0-.88,.23-1.55,.69-2.01,.46-.46,1.12-.69,1.98-.69h11.52c.66,0,1.16,.17,1.5,.51,.34,.34,.51,.83,.51,1.47s-.17,1.16-.51,1.5c-.34,.34-.84,.51-1.5,.51h-9.27v5.45h8.55c.68,0,1.19,.17,1.52,.51s.5,.84,.5,1.5-.17,1.13-.5,1.47c-.33,.34-.84,.51-1.52,.51h-8.55v5.84h9.27c.66,0,1.16,.17,1.5,.51,.34,.34,.51,.84,.51,1.5s-.17,1.13-.51,1.47c-.34,.34-.84,.51-1.5,.51h-11.52Z"/><path class="af" d="M433.82,352.63c-.75,0-1.32-.2-1.72-.61-.39-.41-.59-1-.59-1.77v-19.04c0-.79,.21-1.39,.64-1.78,.43-.4,1.02-.59,1.77-.59,.66,0,1.18,.12,1.57,.36s.73,.66,1.04,1.25l7.62,13.93h-1.05l7.62-13.93c.31-.59,.65-1.01,1.04-1.25s.91-.36,1.57-.36c.73,0,1.29,.2,1.7,.59,.41,.4,.61,.99,.61,1.78v19.04c0,.77-.2,1.36-.59,1.77-.4,.41-.98,.61-1.75,.61-.73,0-1.29-.2-1.7-.61-.41-.41-.61-1-.61-1.77v-13.33h.73l-6.17,10.99c-.24,.42-.51,.73-.81,.92-.3,.2-.68,.3-1.14,.3-.51,0-.91-.1-1.22-.31-.31-.21-.58-.51-.82-.91l-6.17-11.02h.76v13.36c0,.77-.19,1.36-.58,1.77-.38,.41-.96,.61-1.73,.61Z"/><path class="af" d="M411.65,410.37c-1.77,0-3.06-.41-3.85-1.22-.79-.82-1.19-2.02-1.19-3.61,0-1.07,.26-2.04,.77-2.91,.51-.86,1.21-1.76,2.1-2.69l13.09-13.93c2.05-2.1,3.5-3.96,4.34-5.56,.84-1.61,1.26-3.25,1.26-4.94,0-2.01-.66-3.53-1.99-4.58-1.33-1.05-3.23-1.57-5.71-1.57-1.4,0-2.81,.17-4.23,.52-1.42,.35-2.91,.99-4.45,1.92-1.03,.56-1.97,.76-2.84,.6-.86-.16-1.6-.57-2.21-1.23-.61-.65-1-1.41-1.19-2.27-.19-.86-.09-1.74,.28-2.62s1.07-1.63,2.1-2.24c2.05-1.26,4.28-2.19,6.68-2.8s4.84-.91,7.32-.91c3.64,0,6.72,.55,9.24,1.64,2.52,1.1,4.43,2.68,5.74,4.76s1.96,4.63,1.96,7.66c0,1.96-.31,3.88-.95,5.74-.63,1.87-1.59,3.75-2.87,5.63-1.29,1.89-2.95,3.91-5.01,6.06l-12.25,12.46v-2.8h18.9c1.49,0,2.63,.37,3.43,1.12,.79,.75,1.19,1.84,1.19,3.29s-.4,2.56-1.19,3.33c-.79,.77-1.94,1.16-3.43,1.16h-25.06Z"/></g></g></g><g id="k"/><g id="l"/><g id="m"/><g id="n"/><g id="o"/><g id="p"/><g id="q"/><g id="r"/><g id="s"/><g id="t"/><g id="u"><g id="v"/></g><g id="w"/><g id="x"/><g id="y"/><g id="a`"/><g id="aa"/><g id="ab"/><g id="ac"/></svg>