<?xml version="1.0" encoding="UTF-8"?><svg id="f" xmlns="http://www.w3.org/2000/svg" viewBox="0 0 512 452.12"><defs><style>.ad{fill:#f98888;}.ae{fill:#e8edee;}.af{fill:#fff;}.ag{fill:#ffa939;}.ah{fill:#ba752b;}.ai{fill:#b3babe;}.aj{fill:#ce852e;}.ak{fill:#595959;}.al{fill:#515151;}</style></defs><path class="ae" d="M64.45,363.86c-.77-2.34-1.02-4.71-1.02-7.15,.06-60.73,.07-121.47,.09-182.2,2.78-1.86,6.08-1.28,9.19-1.28,53.96-.04,107.92-.03,161.88-.03,68.33,0,136.66,0,204.99,.03,3.11,0,6.4-.58,9.19,1.28,0,63.13-.02,126.26-.03,189.39-5.19,20.22-21.11,31.12-45.5,31.12-98.61,0-197.22,.04-295.83-.03-19.27-.01-33.01-7.85-41.47-22.5-1.55-2.68-2.5-5.57-1.5-8.64Z"/><path class="ag" d="M405.83,65.11c23.64-.04,42.83,15.95,42.95,36.04,.11,18.2-.07,36.41-.12,54.61-2.59,1.91-5.75,1.2-8.67,1.21-93.8,.04-187.61,.03-281.41,.03-29.09,0-58.19,.02-87.28-.03-2.61,0-5.41,.55-7.67-1.21-.03-18.91-.52-37.83,.03-56.73,.55-18.78,20.13-33.89,42.79-33.92,1.21,.74,1.58,1.88,1.59,3.01,.08,10.82,.72,21.65-.32,32.45-1.31,2.36-2.27,1.49-3.04-.29-.74-1.73,.09-3.64-.73-5.42-6.32,4.71-9.94,17.22-4.07,26.99,5.92,9.85,15.38,15.1,28.62,14.83,12.81-.26,22.04-5.58,27.2-15.33,5.27-9.97,3.32-19.45-5.05-27.85-1.19-1.19-2.56-2.26-3.02-3.87-.84-7.04-.38-14.09-.31-21.13,.01-1.27,.27-2.55,1.61-3.4h214.43c1.21,.75,1.58,1.88,1.59,3.02,.08,10.82,.72,21.65-.32,32.45-1.31,2.36-2.27,1.5-3.04-.29-.74-1.73,.09-3.64-.73-5.42-6.32,4.71-9.94,17.22-4.07,26.99,5.92,9.85,15.38,15.1,28.62,14.83,12.81-.26,22.04-5.58,27.2-15.33,5.27-9.97,3.32-19.45-5.05-27.85-1.19-1.19-2.56-2.26-3.02-3.87-.84-7.04-.38-14.09-.31-21.13,.01-1.27,.27-2.55,1.61-3.4Z"/><path class="ai" d="M64.45,363.86c1.41,12.59,16.78,26.43,32.07,28.99,3.95,.66,7.9,.89,11.91,.89,98.06-.02,196.13-.22,294.19,.14,21.77,.08,40.25-11.44,45.02-28.16,.18-.64,.72-1.21,1.09-1.81-.18,6.11,.63,12.21-.76,18.32-3.93,17.3-20.7,29.52-41.31,29.53-100.33,.05-200.65,.05-300.98,0-23.59-.01-42.21-16.04-42.15-36.21,.01-3.88-1.28-7.9,.9-11.67Z"/><path class="aj" d="M448.77,174.52c-1.17,.03-2.34,.1-3.51,.1-126.08,0-252.15,0-378.23,0-1.17,0-2.34-.06-3.51-.1,.03-5.94,.07-11.89,.1-17.83,1.72-.87,3.6-.43,5.4-.43,124.75-.02,249.5-.02,374.24,0,1.8,0,3.68-.43,5.4,.43,.03,5.94,.07,11.89,.1,17.83Z"/><path class="ai" d="M148.93,65.11c.09,8.57,.17,17.14,.26,25.71,1.99,9.53,2.54,18.81-7.38,25.79-6.58,4.64-14.14,5.57-22.06,3.05-7.56-2.4-12.14-7.25-14.07-13.9-.4-1.38-.55-2.82,.55-4.09,.08-12.19,.15-24.37,.22-36.56,.02-6.27-.01-12.54,.09-18.81,.16-9.92,9.64-17.93,21.15-17.95,11.47-.02,20.99,8.03,21.15,17.95,.1,6.27,.06,12.54,.09,18.81Z"/><path class="ai" d="M405.83,65.11l.26,25.71c1.58,7.67,2.53,15.31-3.46,22.08-5.23,5.91-12.31,8.88-20.93,7.79-9.36-1.19-15.65-6-18.73-13.68-.7-1.75-1.22-3.59,.15-5.33,.08-12.18,.16-24.37,.23-36.56,.02-6.41-.01-12.81,.09-19.22,.15-9.88,9.79-17.75,21.4-17.54,11.66,.21,20.74,7.79,20.9,17.54,.1,6.41,.07,12.81,.09,19.22Z"/><path class="ah" d="M448.67,156.68c-128.35,0-256.69,0-385.04,0v-.92c128.35,0,256.69,0,385.03,0v.92Z"/><path class="aj" d="M363.13,101.67c2.39,15.67,20.07,23.27,33.86,14.46,5.64-3.6,8.84-8.44,8.85-14.63,0-3.56,.16-7.12,.25-10.68,13.23,8.86,14.63,28.52,.71,39.7-13.28,10.67-34.51,9.84-46.85-2.19-10.64-10.37-9.68-28.6,2.17-36.22,1.19,3.2-.43,6.54,1.01,9.56Z"/><path class="aj" d="M106.23,101.67c1.91,13.39,14.03,20.88,27.95,17.27,8.23-2.13,14.33-8.8,14.69-16.17,.19-3.98,.21-7.97,.31-11.95,13.23,8.86,14.63,28.52,.71,39.7-13.28,10.67-34.52,9.83-46.85-2.19-10.63-10.37-9.67-28.62,2.17-36.22,1.2,3.2-.45,6.54,1.01,9.56Z"/><g><path class="al" d="M200.07,127.9c-.98,0-1.77-.23-2.37-.69-.6-.46-1.07-1.18-1.4-2.16l-9.29-26.13c-.43-1.17-.36-2.15,.21-2.97,.57-.81,1.54-1.22,2.92-1.22,1.01,0,1.79,.23,2.35,.69,.55,.46,.98,1.18,1.29,2.16l7.54,22.59h-1.98l8.05-22.59c.34-.98,.78-1.7,1.33-2.16s1.27-.69,2.16-.69,1.55,.23,2.07,.69c.52,.46,.95,1.2,1.29,2.21l7.68,22.54h-1.7l7.68-22.59c.34-.98,.78-1.7,1.33-2.16,.55-.46,1.3-.69,2.25-.69,1.2,0,2.07,.41,2.62,1.22,.55,.81,.61,1.8,.18,2.97l-9.34,26.13c-.4,.98-.88,1.7-1.45,2.16-.57,.46-1.34,.69-2.32,.69s-1.77-.23-2.37-.69c-.6-.46-1.07-1.18-1.4-2.16l-7.27-20.56h1.1l-7.41,20.56c-.37,.98-.84,1.7-1.4,2.16s-1.36,.69-2.37,.69Z"/><path class="al" d="M243.36,127.53c-1.2,0-2.12-.32-2.76-.97s-.97-1.58-.97-2.81v-24.89c0-1.23,.32-2.16,.97-2.81,.64-.64,1.56-.97,2.76-.97h16.05c.92,0,1.62,.24,2.09,.71s.71,1.16,.71,2.05-.24,1.62-.71,2.09c-.48,.48-1.17,.71-2.09,.71h-12.93v7.59h11.91c.95,0,1.66,.24,2.12,.71s.69,1.17,.69,2.09-.23,1.57-.69,2.05-1.17,.71-2.12,.71h-11.91v8.14h12.93c.92,0,1.62,.24,2.09,.71s.71,1.17,.71,2.09-.24,1.57-.71,2.05-1.17,.71-2.09,.71h-16.05Z"/><path class="al" d="M271.19,127.53c-1.2,0-2.12-.32-2.76-.97s-.97-1.58-.97-2.81v-24.89c0-1.23,.32-2.16,.97-2.81,.64-.64,1.56-.97,2.76-.97h16.05c.92,0,1.62,.24,2.09,.71s.71,1.16,.71,2.05-.24,1.62-.71,2.09c-.48,.48-1.17,.71-2.09,.71h-12.93v7.59h11.91c.95,0,1.66,.24,2.12,.71s.69,1.17,.69,2.09-.23,1.57-.69,2.05-1.17,.71-2.12,.71h-11.91v8.14h12.93c.92,0,1.62,.24,2.09,.71s.71,1.17,.71,2.09-.24,1.57-.71,2.05-1.17,.71-2.09,.71h-16.05Z"/><path class="al" d="M298.84,127.9c-1.13,0-2.01-.32-2.62-.94s-.92-1.53-.92-2.69v-25.94c0-1.17,.31-2.05,.92-2.67s1.49-.92,2.62-.92,2.05,.31,2.67,.92,.92,1.5,.92,2.67v10.9h.09l12.24-12.79c.52-.55,1.07-.97,1.66-1.27,.58-.29,1.23-.44,1.93-.44,1.07,0,1.85,.28,2.32,.83,.48,.55,.68,1.2,.62,1.93s-.4,1.41-1.01,2.02l-12.28,12.56,.05-2.99,12.83,13.71c.74,.74,1.11,1.51,1.13,2.32s-.25,1.48-.78,2c-.54,.52-1.33,.78-2.37,.78-.89,0-1.6-.18-2.12-.55-.52-.37-1.12-.89-1.79-1.56l-12.42-13.06h-.09v11.55c0,1.17-.3,2.06-.9,2.69s-1.5,.94-2.69,.94Z"/></g><g><path class="ak" d="M136.87,330.77c-5.1,0-10.32-.59-15.66-1.76-5.34-1.18-9.97-2.89-13.89-5.15-2.55-1.37-4.31-2.99-5.29-4.85-.98-1.86-1.32-3.75-1.03-5.66s1.08-3.58,2.35-5c1.27-1.42,2.91-2.33,4.92-2.72,2.01-.39,4.24,0,6.69,1.18,3.82,1.86,7.42,3.16,10.8,3.9,3.38,.74,6.88,1.1,10.51,1.1,3.82,0,7.08-.46,9.78-1.4,2.69-.93,4.7-2.4,6.03-4.41,1.32-2.01,1.98-4.48,1.98-7.42,0-4.21-1.42-7.3-4.26-9.26-2.84-1.96-7.01-2.94-12.5-2.94h-8.67c-3.23,0-5.71-.83-7.42-2.5-1.72-1.67-2.57-3.92-2.57-6.76s.86-5.22,2.57-6.84c1.71-1.62,4.19-2.43,7.42-2.43h6.47c3.23,0,6.05-.51,8.45-1.54,2.4-1.03,4.21-2.5,5.44-4.41,1.22-1.91,1.84-4.24,1.84-6.98,0-3.82-1.3-6.74-3.9-8.75-2.6-2.01-6.49-3.01-11.69-3.01-3.14,0-6.22,.34-9.26,1.03-3.04,.69-6.37,1.96-10,3.82-2.06,1.18-4.02,1.57-5.88,1.18-1.86-.39-3.38-1.3-4.56-2.72-1.18-1.42-1.94-3.04-2.28-4.85-.34-1.81-.12-3.62,.66-5.44,.78-1.81,2.3-3.4,4.56-4.78,4.21-2.35,8.79-4.14,13.74-5.37,4.95-1.22,9.97-1.84,15.07-1.84,7.45,0,13.82,1.1,19.11,3.31s9.33,5.37,12.13,9.48c2.79,4.12,4.19,9.17,4.19,15.14,0,4.02-.76,7.69-2.28,11.02-1.52,3.33-3.7,6.15-6.54,8.45-2.84,2.3-6.22,3.95-10.14,4.92v-1.91c6.96,1.08,12.4,3.95,16.32,8.6,3.92,4.66,5.88,10.51,5.88,17.57,0,6.08-1.57,11.42-4.7,16.02-3.14,4.61-7.62,8.08-13.45,10.44-5.83,2.35-12.81,3.53-20.95,3.53Z"/><path class="ak" d="M200.81,298.58c-2.45,0-4.53-.83-6.25-2.5-1.72-1.67-2.57-3.72-2.57-6.17,0-2.65,.86-4.75,2.57-6.32,1.71-1.57,3.8-2.35,6.25-2.35h30.28c2.55,0,4.65,.79,6.32,2.35,1.67,1.57,2.5,3.67,2.5,6.32,0,2.45-.83,4.51-2.5,6.17-1.67,1.67-3.77,2.5-6.32,2.5h-30.28Z"/><path class="ak" d="M271.22,329.3c-3.04,0-5.37-.83-6.98-2.5-1.62-1.67-2.42-3.97-2.42-6.91s.81-5.34,2.42-6.91c1.62-1.57,3.94-2.35,6.98-2.35h14.99v-66.3h10.73l-21.46,13.08c-2.26,1.27-4.34,1.79-6.25,1.54-1.91-.24-3.55-1.05-4.92-2.42-1.37-1.37-2.28-3.01-2.72-4.92-.44-1.91-.27-3.82,.51-5.73,.78-1.91,2.25-3.55,4.41-4.92l20.43-12.35c2.06-1.27,4.14-2.28,6.25-3.01,2.11-.73,4.19-1.1,6.25-1.1,2.94,0,5.27,.73,6.98,2.2,1.71,1.47,2.57,3.73,2.57,6.76v77.17h13.38c3.04,0,5.39,.79,7.06,2.35,1.67,1.57,2.5,3.87,2.5,6.91s-.83,5.37-2.5,6.98c-1.67,1.62-4.02,2.43-7.06,2.43h-51.16Z"/><path class="ak" d="M359.42,329.3c-3.04,0-5.37-.83-6.98-2.5-1.62-1.67-2.42-3.97-2.42-6.91s.81-5.34,2.42-6.91c1.62-1.57,3.94-2.35,6.98-2.35h14.99v-66.3h10.73l-21.46,13.08c-2.26,1.27-4.34,1.79-6.25,1.54-1.91-.24-3.55-1.05-4.92-2.42-1.37-1.37-2.28-3.01-2.72-4.92-.44-1.91-.27-3.82,.51-5.73,.78-1.91,2.25-3.55,4.41-4.92l20.43-12.35c2.06-1.27,4.14-2.28,6.25-3.01,2.11-.73,4.19-1.1,6.25-1.1,2.94,0,5.27,.73,6.98,2.2,1.71,1.47,2.57,3.73,2.57,6.76v77.17h13.38c3.04,0,5.39,.79,7.06,2.35,1.67,1.57,2.5,3.87,2.5,6.91s-.83,5.37-2.5,6.98c-1.67,1.62-4.02,2.43-7.06,2.43h-51.16Z"/></g><g><circle class="ad" cx="419.97" cy="361.79" r="73.16"/><g><path class="af" d="M395.61,354.52c-.92,0-1.87-.07-2.84-.2-.97-.13-1.88-.33-2.72-.59-.85-.26-1.61-.59-2.29-.99-.51-.26-.86-.61-1.06-1.04-.2-.43-.26-.86-.2-1.3,.07-.44,.23-.83,.48-1.17,.25-.34,.6-.56,1.04-.66,.44-.1,.91-.02,1.42,.25,.92,.48,1.92,.85,2.99,1.09,1.07,.24,2.13,.36,3.18,.36,1.58,0,2.73-.24,3.43-.73,.7-.48,1.06-1.1,1.06-1.85,0-.66-.25-1.17-.74-1.53-.5-.36-1.35-.67-2.56-.91l-3.73-.79c-2.11-.46-3.67-1.23-4.69-2.29s-1.52-2.47-1.52-4.21c0-1.1,.23-2.11,.68-3.02,.45-.91,1.09-1.69,1.91-2.34,.82-.65,1.82-1.14,2.99-1.49,1.17-.34,2.45-.51,3.86-.51,1.21,0,2.41,.14,3.6,.43,1.19,.29,2.24,.71,3.17,1.29,.42,.26,.71,.59,.87,.99,.17,.4,.22,.81,.17,1.24s-.22,.79-.5,1.09-.62,.49-1.04,.58c-.42,.09-.92-.01-1.52-.3-.7-.37-1.47-.64-2.29-.81s-1.67-.25-2.52-.25c-.92,0-1.71,.12-2.36,.36-.65,.24-1.14,.58-1.47,1.01-.33,.43-.5,.94-.5,1.54s.23,1.12,.68,1.52c.45,.4,1.25,.71,2.39,.96l3.7,.79c2.18,.46,3.8,1.2,4.87,2.23,1.07,1.02,1.6,2.37,1.6,4.04,0,1.1-.23,2.1-.69,2.99-.46,.89-1.11,1.65-1.93,2.28s-1.81,1.11-2.97,1.45-2.47,.51-3.94,.51Z"/><path class="af" d="M411.12,354.19c-.86,0-1.52-.23-1.98-.69s-.69-1.13-.69-2.01v-17.85c0-.88,.23-1.55,.69-2.01s1.12-.69,1.98-.69h11.52c.66,0,1.16,.17,1.5,.51,.34,.34,.51,.83,.51,1.47s-.17,1.16-.51,1.5-.84,.51-1.5,.51h-9.27v5.45h8.55c.68,0,1.19,.17,1.52,.51s.5,.84,.5,1.5-.17,1.13-.5,1.47c-.33,.34-.84,.51-1.52,.51h-8.55v5.84h9.27c.66,0,1.16,.17,1.5,.51s.51,.84,.51,1.5-.17,1.13-.51,1.47c-.34,.34-.84,.51-1.5,.51h-11.52Z"/><path class="af" d="M430.79,354.46c-.75,0-1.32-.2-1.72-.61-.4-.41-.59-1-.59-1.77v-19.04c0-.79,.21-1.39,.64-1.78,.43-.4,1.02-.59,1.77-.59,.66,0,1.18,.12,1.57,.36,.38,.24,.73,.66,1.04,1.25l7.62,13.93h-1.06l7.62-13.93c.31-.59,.65-1.01,1.04-1.25s.91-.36,1.57-.36c.73,0,1.29,.2,1.7,.59,.41,.4,.61,.99,.61,1.78v19.04c0,.77-.2,1.36-.59,1.77-.4,.41-.98,.61-1.75,.61-.73,0-1.29-.2-1.7-.61-.41-.41-.61-1-.61-1.77v-13.33h.73l-6.17,10.99c-.24,.42-.51,.73-.81,.92-.3,.2-.68,.3-1.14,.3-.51,0-.91-.1-1.22-.31-.31-.21-.58-.51-.82-.91l-6.17-11.02h.76v13.36c0,.77-.19,1.36-.58,1.77-.38,.41-.96,.61-1.73,.61Z"/><path class="af" d="M409.89,412.19c-1.45,0-2.55-.4-3.33-1.19-.77-.79-1.15-1.89-1.15-3.29s.38-2.54,1.15-3.29c.77-.75,1.88-1.12,3.33-1.12h7.14v-31.57h5.11l-10.22,6.23c-1.07,.61-2.07,.85-2.98,.74-.91-.12-1.69-.5-2.34-1.16-.65-.65-1.08-1.43-1.29-2.34s-.13-1.82,.25-2.73c.37-.91,1.07-1.69,2.1-2.35l9.73-5.88c.98-.61,1.97-1.08,2.97-1.43,1-.35,2-.53,2.98-.53,1.4,0,2.51,.35,3.32,1.05,.82,.7,1.23,1.77,1.23,3.22v36.75h6.37c1.45,0,2.57,.37,3.36,1.12,.79,.75,1.19,1.84,1.19,3.29s-.4,2.56-1.19,3.33c-.79,.77-1.91,1.16-3.36,1.16h-24.36Z"/></g></g></svg>