<?xml version="1.0" encoding="UTF-8"?><svg id="s" xmlns="http://www.w3.org/2000/svg" xmlns:xlink="http://www.w3.org/1999/xlink" viewBox="0 0 512 452.12"><defs><style>.ag{fill:none;}.ah{fill:#008cba;}.ai{fill:#fff;}.aj{fill:#ffa939;}.ak{fill:#821717;}.al{fill:#ce852e;}.am{fill:#bc782e;}.an{fill:#595959;}.ao{clip-path:url(#t);}</style><clipPath id="t"><rect class="ag" y="-11.51" width="512" height="512"/></clipPath></defs><g class="ao"><circle class="aj" cx="218.76" cy="188.63" r="18.62"/></g><rect class="ah" x="63.48" y="65.58" width="385.04" height="346.68" rx="33.19" ry="33.19"/><g><rect class="ai" x="163.34" y="284.11" width="193.81" height="62.88"/><path class="an" d="M183.53,337.37c-3.79,.03-7.58,.05-11.37,.11-3.61,.06-6.63,1.18-9.07,3.4-1.02,.93-1.12,1.65-.05,2.64,2.35,2.18,5.25,3.31,8.76,3.46,.81,.04,1.62,.01,2.44,.01,56.44,0,112.87-.02,169.31,.03,6.38,0,10.95-1.93,13.18-7.15,.9,8.91,1.17,13.05-8.34,16.59H168.88c-4.2-1.55-7.57-3.77-8.39-7.71-.36-1.73-.24-3.53-.24-5.3,0-68.02,0-136.04-.02-204.06,0-5.09,3.33-8.14,8.66-10.11h14.64c0,69.37,0,138.73,0,208.1Z"/><path class="al" d="M183.61,129.27h164.88c6.91,1.9,9.34,5.88,9.33,11.71-.12,61.75-.14,123.49,.02,185.24,.02,6.14-4.59,11.18-13.76,11.15-52.49-.19-104.98-.09-157.48-.1-.99,0-1.99-.06-2.98-.1,0-69.3,0-138.6,0-207.91Z"/><path class="am" d="M357.21,138.41c0,5.17-.14,125.11,.02,187.67,.02,6.23-4.59,11.33-13.77,11.3-52.49-.2-104.99-.09-157.48-.1-.99,0-2.98-.1-2.98-.1,0,0,174.21-203.95,174.21-198.77Z"/><polygon class="ak" points="303.83 129.27 303.83 186.69 323.11 170.18 342.39 186.84 342.39 129.27 303.83 129.27"/></g><rect class="an" x="177.86" y="129.27" width="11.76" height="208"/></svg>