<?xml version="1.0" encoding="UTF-8"?><svg xmlns="http://www.w3.org/2000/svg" viewBox="0 0 512 452.12"><defs><style>.ad{fill:#f98888;}.ae{fill:#e8edee;}.af{fill:#fff;}.ag{fill:#ffa939;}.ah{fill:#ba752b;}.ai{fill:#b3babe;}.aj{fill:#ce852e;}.ak{fill:#595959;}.al{fill:#515151;}</style></defs><g id="a"/><g id="b"/><g id="c"/><g id="d"/><g id="e"/><g id="f"/><g id="g"/><g id="h"><g><path d="M246.05,261.71c-.95,0-1.69-.27-2.21-.8-.52-.54-.78-1.28-.78-2.23v-26.54c0-.98,.25-1.72,.76-2.23,.51-.51,1.23-.76,2.19-.76s1.68,.25,2.18,.76c.51,.51,.76,1.25,.76,2.23v24.56h13.34c.83,0,1.46,.21,1.91,.64,.44,.43,.67,1.04,.67,1.84s-.22,1.42-.67,1.86c-.44,.45-1.08,.67-1.91,.67h-16.24Z"/><path d="M278.38,262.17c-2.33,0-4.35-.47-6.07-1.43-1.72-.95-3.05-2.31-4-4.07-.95-1.76-1.43-3.84-1.43-6.23,0-1.81,.27-3.43,.8-4.85,.54-1.43,1.31-2.65,2.32-3.68s2.22-1.81,3.63-2.35c1.41-.54,2.99-.8,4.74-.8,2.33,0,4.35,.48,6.07,1.43,1.72,.95,3.05,2.3,4,4.05,.95,1.75,1.43,3.82,1.43,6.21,0,1.81-.27,3.43-.8,4.88-.54,1.44-1.31,2.68-2.32,3.7-1.01,1.03-2.22,1.81-3.63,2.35-1.41,.54-2.99,.8-4.74,.8Zm0-4.37c1.13,0,2.13-.28,2.99-.83,.86-.55,1.53-1.37,2-2.46,.47-1.09,.71-2.45,.71-4.07,0-2.45-.52-4.29-1.56-5.5-1.04-1.21-2.42-1.82-4.14-1.82-1.13,0-2.13,.27-2.99,.8-.86,.54-1.53,1.35-2,2.44-.48,1.09-.71,2.45-.71,4.07,0,2.42,.52,4.25,1.56,5.5,1.04,1.24,2.42,1.86,4.14,1.86Z"/><path d="M297.56,262.08c-.95,0-1.68-.25-2.18-.76-.51-.51-.76-1.23-.76-2.19v-17.39c0-.95,.25-1.67,.74-2.16,.49-.49,1.18-.74,2.07-.74s1.58,.25,2.07,.74c.49,.49,.74,1.21,.74,2.16v2.9h-.46c.43-1.84,1.27-3.23,2.53-4.19,1.26-.95,2.93-1.52,5.01-1.7,.64-.06,1.16,.1,1.54,.48s.61,.97,.67,1.77c.06,.77-.11,1.39-.53,1.86s-1.04,.76-1.86,.85l-1.01,.09c-1.87,.18-3.28,.76-4.23,1.72-.95,.97-1.43,2.32-1.43,4.07v9.52c0,.95-.25,1.68-.74,2.19-.49,.51-1.21,.76-2.16,.76Z"/><path d="M323.37,262.17c-2.55,0-4.74-.47-6.58-1.43-1.84-.95-3.26-2.3-4.25-4.05-1-1.75-1.5-3.82-1.5-6.21s.48-4.37,1.45-6.12,2.3-3.12,4-4.12c1.7-1,3.64-1.5,5.82-1.5,1.59,0,3.03,.26,4.3,.78,1.27,.52,2.36,1.27,3.27,2.25,.9,.98,1.59,2.17,2.07,3.57,.47,1.4,.71,2.97,.71,4.71,0,.55-.19,.97-.58,1.26-.38,.29-.93,.44-1.63,.44h-14.77v-3.31h12.93l-.74,.69c0-1.41-.21-2.59-.62-3.54s-1.01-1.68-1.79-2.19-1.76-.76-2.92-.76c-1.29,0-2.38,.3-3.29,.9-.91,.6-1.59,1.44-2.07,2.53-.48,1.09-.71,2.38-.71,3.89v.32c0,2.51,.59,4.39,1.77,5.63,1.18,1.24,2.92,1.86,5.22,1.86,.8,0,1.69-.1,2.69-.3,1-.2,1.94-.54,2.83-1.04,.64-.37,1.21-.53,1.7-.48,.49,.05,.88,.22,1.17,.53,.29,.31,.47,.68,.53,1.13,.06,.45-.02,.9-.25,1.36-.23,.46-.62,.86-1.17,1.2-1.07,.67-2.31,1.17-3.7,1.49-1.4,.32-2.69,.48-3.89,.48Z"/><path d="M340.16,262.08c-.92,0-1.62-.25-2.12-.76-.49-.51-.74-1.23-.74-2.19v-17.39c0-.95,.25-1.67,.74-2.16s1.18-.74,2.07-.74,1.58,.25,2.07,.74c.49,.49,.74,1.21,.74,2.16v3.36l-.51-1.38c.61-1.53,1.56-2.74,2.85-3.63,1.29-.89,2.82-1.33,4.6-1.33s3.3,.43,4.46,1.29c1.17,.86,1.98,2.18,2.44,3.96h-.64c.61-1.62,1.62-2.91,3.04-3.84s3.04-1.4,4.88-1.4c1.72,0,3.14,.34,4.26,1.01,1.12,.67,1.95,1.7,2.51,3.06,.55,1.36,.83,3.09,.83,5.17v11.13c0,.95-.25,1.68-.76,2.19-.51,.51-1.22,.76-2.14,.76s-1.63-.25-2.12-.76c-.49-.51-.74-1.23-.74-2.19v-10.9c0-1.72-.28-2.97-.85-3.77-.57-.8-1.53-1.2-2.88-1.2-1.5,0-2.68,.53-3.54,1.59-.86,1.06-1.29,2.52-1.29,4.39v9.89c0,.95-.25,1.68-.74,2.19-.49,.51-1.2,.76-2.12,.76s-1.63-.25-2.14-.76c-.51-.51-.76-1.23-.76-2.19v-10.9c0-1.72-.28-2.97-.85-3.77-.57-.8-1.51-1.2-2.83-1.2-1.5,0-2.68,.53-3.54,1.59-.86,1.06-1.29,2.52-1.29,4.39v9.89c0,1.96-.97,2.94-2.9,2.94Z"/></g></g><g id="i"><g><path class="ae" d="M64.45,363.91c-.77-2.34-1.02-4.71-1.02-7.15,.06-60.73,.07-121.47,.09-182.2,2.78-1.86,6.08-1.28,9.19-1.28,53.96-.04,107.92-.03,161.88-.03,68.33,0,136.66,0,204.99,.03,3.11,0,6.4-.58,9.19,1.28,0,63.13-.02,126.26-.03,189.39-5.19,20.22-21.11,31.12-45.5,31.12-98.61,0-197.22,.04-295.83-.03-19.27-.01-33.01-7.85-41.47-22.5-1.55-2.68-2.5-5.57-1.5-8.64Z"/><path class="ag" d="M405.83,65.15c23.64-.04,42.83,15.95,42.95,36.04,.11,18.2-.07,36.41-.12,54.61-2.59,1.91-5.75,1.2-8.67,1.21-93.8,.04-187.61,.03-281.41,.03-29.09,0-58.19,.02-87.28-.03-2.61,0-5.41,.55-7.67-1.21-.03-18.91-.52-37.83,.03-56.73,.55-18.78,20.13-33.89,42.79-33.92,1.21,.74,1.58,1.88,1.59,3.01,.08,10.82,.72,21.65-.32,32.45-1.31,2.36-2.27,1.49-3.04-.29-.74-1.73,.09-3.64-.73-5.42-6.32,4.71-9.94,17.22-4.07,26.99,5.92,9.85,15.38,15.1,28.62,14.83,12.81-.26,22.04-5.58,27.2-15.33,5.27-9.97,3.32-19.45-5.05-27.85-1.19-1.19-2.56-2.26-3.02-3.87-.84-7.04-.38-14.09-.31-21.13,.01-1.27,.27-2.55,1.61-3.4h214.43c1.21,.75,1.58,1.88,1.59,3.02,.08,10.82,.72,21.65-.32,32.45-1.31,2.36-2.27,1.5-3.04-.29-.74-1.73,.09-3.64-.73-5.42-6.32,4.71-9.94,17.22-4.07,26.99,5.92,9.85,15.38,15.1,28.62,14.83,12.81-.26,22.04-5.58,27.2-15.33,5.27-9.97,3.32-19.45-5.05-27.85-1.19-1.19-2.56-2.26-3.02-3.87-.84-7.04-.38-14.09-.31-21.13,.01-1.27,.27-2.55,1.61-3.4Z"/><path class="ai" d="M64.45,363.91c1.41,12.59,16.78,26.43,32.07,28.99,3.95,.66,7.9,.89,11.91,.89,98.06-.02,196.13-.22,294.19,.14,21.77,.08,40.25-11.44,45.02-28.16,.18-.64,.72-1.21,1.09-1.81-.18,6.11,.63,12.21-.76,18.32-3.93,17.3-20.7,29.52-41.31,29.53-100.33,.05-200.65,.05-300.98,0-23.59-.01-42.21-16.04-42.15-36.21,.01-3.88-1.28-7.9,.9-11.67Z"/><path class="aj" d="M448.77,174.56c-1.17,.03-2.34,.1-3.51,.1-126.08,0-252.15,0-378.23,0-1.17,0-2.34-.06-3.51-.1,.03-5.94,.07-11.89,.1-17.83,1.72-.87,3.6-.43,5.4-.43,124.75-.02,249.5-.02,374.24,0,1.8,0,3.68-.43,5.4,.43,.03,5.94,.07,11.89,.1,17.83Z"/><path class="ai" d="M148.93,65.15c.09,8.57,.17,17.14,.26,25.71,1.99,9.53,2.54,18.81-7.38,25.79-6.58,4.64-14.14,5.57-22.06,3.05-7.56-2.4-12.14-7.25-14.07-13.9-.4-1.38-.55-2.82,.55-4.09,.08-12.19,.15-24.37,.22-36.56,.02-6.27-.01-12.54,.09-18.81,.16-9.92,9.64-17.93,21.15-17.95,11.47-.02,20.99,8.03,21.15,17.95,.1,6.27,.06,12.54,.09,18.81Z"/><path class="ai" d="M405.83,65.15l.26,25.71c1.58,7.67,2.53,15.31-3.46,22.08-5.23,5.91-12.31,8.88-20.93,7.79-9.36-1.19-15.65-6-18.73-13.68-.7-1.75-1.22-3.59,.15-5.33,.08-12.18,.16-24.37,.23-36.56,.02-6.41-.01-12.81,.09-19.22,.15-9.88,9.79-17.75,21.4-17.54,11.66,.21,20.74,7.79,20.9,17.54,.1,6.41,.07,12.81,.09,19.22Z"/><path class="ah" d="M448.67,156.72c-128.35,0-256.69,0-385.04,0v-.92c128.35,0,256.69,0,385.03,0v.92Z"/><path class="aj" d="M363.13,101.71c2.39,15.67,20.07,23.27,33.86,14.46,5.64-3.6,8.84-8.44,8.85-14.63,0-3.56,.16-7.12,.25-10.68,13.23,8.86,14.63,28.52,.71,39.7-13.28,10.67-34.51,9.84-46.85-2.19-10.64-10.37-9.68-28.6,2.17-36.22,1.19,3.2-.43,6.54,1.01,9.56Z"/><path class="aj" d="M106.23,101.71c1.91,13.39,14.03,20.88,27.95,17.27,8.23-2.13,14.33-8.8,14.69-16.17,.19-3.98,.21-7.97,.31-11.95,13.23,8.86,14.63,28.52,.71,39.7-13.28,10.67-34.52,9.83-46.85-2.19-10.63-10.37-9.67-28.62,2.17-36.22,1.2,3.2-.45,6.54,1.01,9.56Z"/><g><path class="al" d="M195.43,107.54c-1.2,0-2.12-.32-2.76-.97-.64-.64-.97-1.58-.97-2.81v-24.89c0-1.23,.32-2.16,.97-2.81,.64-.64,1.56-.97,2.76-.97h16.05c.92,0,1.62,.24,2.09,.71,.47,.48,.71,1.16,.71,2.05s-.24,1.62-.71,2.09c-.48,.48-1.17,.71-2.09,.71h-12.93v7.59h11.91c.95,0,1.66,.24,2.12,.71,.46,.48,.69,1.17,.69,2.09s-.23,1.57-.69,2.05c-.46,.48-1.17,.71-2.12,.71h-11.91v8.14h12.93c.92,0,1.62,.24,2.09,.71,.47,.48,.71,1.17,.71,2.09s-.24,1.57-.71,2.05c-.48,.48-1.17,.71-2.09,.71h-16.05Z"/><path class="al" d="M221.42,107.9c-.92,0-1.68-.25-2.28-.74s-.94-1.11-1.04-1.86c-.09-.75,.17-1.52,.78-2.32l10.12-13.48v3.17l-9.75-13.02c-.58-.77-.84-1.53-.76-2.3s.41-1.4,1.01-1.89,1.34-.74,2.23-.74c.77,0,1.43,.18,2,.53,.57,.35,1.14,.93,1.72,1.72l7.54,10.53h-2.3l7.59-10.53c.58-.8,1.16-1.37,1.73-1.72,.57-.35,1.25-.53,2.05-.53,.92,0,1.68,.24,2.28,.71,.6,.48,.94,1.1,1.01,1.86,.08,.77-.21,1.55-.85,2.35l-9.75,13.02v-3.17l10.17,13.48c.58,.8,.83,1.57,.76,2.32-.08,.75-.41,1.37-1.01,1.86s-1.37,.74-2.32,.74c-.74,0-1.39-.18-1.96-.55-.57-.37-1.16-.95-1.77-1.75l-7.91-10.9h2.35l-7.91,10.9c-.58,.8-1.16,1.38-1.75,1.75-.58,.37-1.24,.55-1.98,.55Z"/><path class="al" d="M251.18,107.9c-.86,0-1.56-.19-2.09-.58s-.87-.91-.99-1.59c-.12-.67,0-1.43,.37-2.25l11.82-25.85c.49-1.01,1.08-1.75,1.77-2.21s1.46-.69,2.32-.69,1.67,.23,2.35,.69c.67,.46,1.26,1.2,1.75,2.21l11.82,25.85c.4,.86,.54,1.62,.44,2.28-.11,.66-.43,1.18-.97,1.56-.54,.38-1.2,.58-2,.58-1.04,0-1.85-.24-2.41-.71-.57-.48-1.07-1.23-1.5-2.28l-2.76-6.39,2.85,1.98h-19.18l2.85-1.98-2.71,6.39c-.49,1.04-.98,1.8-1.47,2.28-.49,.47-1.24,.71-2.25,.71Zm13.16-25.21l-5.93,14.08-1.24-1.84h14.4l-1.2,1.84-5.93-14.08h-.09Z"/><path class="al" d="M288.26,107.9c-1.04,0-1.84-.28-2.39-.85-.55-.57-.83-1.39-.83-2.46v-26.54c0-1.1,.3-1.93,.9-2.48,.6-.55,1.42-.83,2.46-.83,.92,0,1.65,.17,2.19,.51,.54,.34,1.02,.92,1.45,1.75l10.62,19.41h-1.47l10.62-19.41c.43-.83,.91-1.41,1.45-1.75,.54-.34,1.27-.51,2.19-.51,1.01,0,1.8,.28,2.37,.83,.57,.55,.85,1.38,.85,2.48v26.54c0,1.07-.28,1.89-.83,2.46-.55,.57-1.37,.85-2.44,.85-1.01,0-1.8-.28-2.37-.85-.57-.57-.85-1.39-.85-2.46v-18.58h1.01l-8.6,15.32c-.34,.58-.71,1.01-1.13,1.29-.41,.28-.94,.41-1.59,.41-.71,0-1.27-.15-1.7-.44-.43-.29-.81-.71-1.15-1.26l-8.6-15.36h1.06v18.63c0,1.07-.27,1.89-.8,2.46-.54,.57-1.34,.85-2.41,.85Z"/><path class="al" d="M203.66,145.9c-.98,0-1.77-.23-2.37-.69-.6-.46-1.07-1.18-1.4-2.16l-9.29-26.13c-.43-1.17-.36-2.15,.21-2.97,.57-.81,1.54-1.22,2.92-1.22,1.01,0,1.79,.23,2.35,.69,.55,.46,.98,1.18,1.29,2.16l7.54,22.59h-1.98l8.05-22.59c.34-.98,.78-1.7,1.33-2.16,.55-.46,1.27-.69,2.16-.69s1.55,.23,2.07,.69,.95,1.2,1.29,2.21l7.68,22.54h-1.7l7.68-22.59c.34-.98,.78-1.7,1.33-2.16,.55-.46,1.3-.69,2.25-.69,1.2,0,2.07,.41,2.62,1.22,.55,.81,.61,1.8,.18,2.97l-9.34,26.13c-.4,.98-.88,1.7-1.45,2.16s-1.34,.69-2.32,.69-1.77-.23-2.37-.69-1.07-1.18-1.4-2.16l-7.27-20.56h1.11l-7.41,20.56c-.37,.98-.84,1.7-1.4,2.16-.57,.46-1.36,.69-2.37,.69Z"/><path class="al" d="M246.95,145.54c-1.2,0-2.12-.32-2.76-.97-.64-.64-.97-1.58-.97-2.81v-24.89c0-1.23,.32-2.16,.97-2.81,.64-.64,1.56-.97,2.76-.97h16.05c.92,0,1.62,.24,2.09,.71,.47,.48,.71,1.16,.71,2.05s-.24,1.62-.71,2.09c-.48,.48-1.17,.71-2.09,.71h-12.93v7.59h11.91c.95,0,1.66,.24,2.12,.71,.46,.48,.69,1.17,.69,2.09s-.23,1.57-.69,2.05c-.46,.48-1.17,.71-2.12,.71h-11.91v8.14h12.93c.92,0,1.62,.24,2.09,.71,.47,.48,.71,1.17,.71,2.09s-.24,1.57-.71,2.05c-.48,.48-1.17,.71-2.09,.71h-16.05Z"/><path class="al" d="M274.78,145.54c-1.2,0-2.12-.32-2.76-.97-.64-.64-.97-1.58-.97-2.81v-24.89c0-1.23,.32-2.16,.97-2.81,.64-.64,1.56-.97,2.76-.97h16.05c.92,0,1.62,.24,2.09,.71,.47,.48,.71,1.16,.71,2.05s-.24,1.62-.71,2.09c-.48,.48-1.17,.71-2.09,.71h-12.93v7.59h11.91c.95,0,1.66,.24,2.12,.71,.46,.48,.69,1.17,.69,2.09s-.23,1.57-.69,2.05c-.46,.48-1.17,.71-2.12,.71h-11.91v8.14h12.93c.92,0,1.62,.24,2.09,.71,.47,.48,.71,1.17,.71,2.09s-.24,1.57-.71,2.05c-.48,.48-1.17,.71-2.09,.71h-16.05Z"/><path class="al" d="M302.42,145.9c-1.13,0-2.01-.32-2.62-.94s-.92-1.53-.92-2.69v-25.94c0-1.17,.31-2.05,.92-2.67s1.49-.92,2.62-.92,2.05,.31,2.67,.92,.92,1.5,.92,2.67v10.9h.09l12.23-12.79c.52-.55,1.07-.97,1.66-1.27,.58-.29,1.23-.44,1.93-.44,1.07,0,1.85,.28,2.32,.83,.47,.55,.68,1.2,.62,1.93-.06,.74-.4,1.41-1.01,2.02l-12.28,12.56,.05-2.99,12.83,13.71c.74,.74,1.11,1.51,1.13,2.32s-.25,1.48-.78,2c-.54,.52-1.33,.78-2.37,.78-.89,0-1.6-.18-2.12-.55-.52-.37-1.12-.89-1.79-1.56l-12.42-13.06h-.09v11.55c0,1.17-.3,2.06-.9,2.69s-1.49,.94-2.69,.94Z"/></g><g><path class="ak" d="M117.46,348.03c-3.38,0-6.01-.94-7.9-2.83-1.89-1.88-2.83-4.45-2.83-7.7s.94-5.91,2.83-7.6c1.88-1.69,4.52-2.54,7.9-2.54h21.84v-95.75h12.09l-28.67,17.36c-2.47,1.43-4.78,1.98-6.92,1.66-2.15-.32-3.97-1.23-5.46-2.73-1.5-1.49-2.5-3.28-3.02-5.36-.52-2.08-.36-4.19,.49-6.34,.84-2.15,2.5-3.93,4.97-5.36l26.91-16.18c2.6-1.56,5.2-2.89,7.8-4,2.6-1.1,5-1.66,7.21-1.66,2.73,0,5,.75,6.83,2.24,1.82,1.5,2.73,3.93,2.73,7.31v108.81h19.89c3.38,0,6.01,.85,7.9,2.54,1.88,1.69,2.83,4.23,2.83,7.6s-.94,5.98-2.83,7.8c-1.89,1.82-4.52,2.73-7.9,2.73H117.46Z"/><path class="ak" d="M212.03,305.52c-2.86,0-5.23-.94-7.12-2.83-1.89-1.88-2.83-4.19-2.83-6.92s.94-5.2,2.83-7.02c1.88-1.82,4.26-2.73,7.12-2.73h41.54c2.73,0,5.04,.91,6.92,2.73,1.88,1.82,2.83,4.16,2.83,7.02s-.94,5.04-2.83,6.92c-1.89,1.89-4.19,2.83-6.92,2.83h-41.54Z"/><path class="ak" d="M287.3,348.03c-4.16,0-7.18-.94-9.07-2.83-1.89-1.88-2.83-4.65-2.83-8.29,0-2.21,.58-4.35,1.75-6.43,1.17-2.08,2.86-4.29,5.07-6.63l39.19-41.73c5.98-6.24,10.27-11.93,12.87-17.06,2.6-5.13,3.9-10.3,3.9-15.5,0-6.5-2.05-11.44-6.14-14.82-4.09-3.38-10.04-5.07-17.84-5.07-4.42,0-8.84,.62-13.26,1.85-4.42,1.24-8.91,3.35-13.46,6.34-2.34,1.56-4.52,2.21-6.53,1.95-2.02-.26-3.77-1.1-5.27-2.54-1.5-1.43-2.5-3.18-3.02-5.27-.52-2.08-.42-4.19,.29-6.34,.71-2.15,2.24-4,4.58-5.56,5.59-3.77,11.86-6.63,18.82-8.58,6.95-1.95,13.94-2.92,20.96-2.92,9.88,0,18.2,1.5,24.96,4.48,6.76,2.99,11.9,7.35,15.41,13.07,3.51,5.72,5.26,12.67,5.26,20.87,0,5.46-.88,10.79-2.63,15.99-1.76,5.2-4.42,10.47-8,15.79-3.58,5.33-8.22,10.99-13.94,16.96l-36.66,38.22v-6.63h57.33c3.51,0,6.17,.85,8,2.54,1.82,1.69,2.73,4.23,2.73,7.6s-.91,5.98-2.73,7.8-4.49,2.73-8,2.73h-71.76Z"/></g></g><g><circle class="ad" cx="415.84" cy="360.38" r="73.16"/><g><path class="af" d="M391.48,353.11c-.92,0-1.87-.07-2.84-.2s-1.88-.33-2.72-.59-1.61-.59-2.29-.99c-.51-.26-.86-.61-1.06-1.04-.2-.43-.26-.86-.2-1.3,.07-.44,.22-.83,.48-1.17,.25-.34,.6-.56,1.04-.66,.44-.1,.91-.02,1.42,.25,.92,.48,1.92,.85,2.99,1.09,1.07,.24,2.13,.36,3.18,.36,1.58,0,2.73-.24,3.43-.73,.71-.48,1.06-1.1,1.06-1.85,0-.66-.25-1.17-.74-1.53-.5-.36-1.35-.67-2.56-.91l-3.73-.79c-2.11-.46-3.67-1.23-4.69-2.29s-1.52-2.47-1.52-4.21c0-1.1,.22-2.11,.68-3.02,.45-.91,1.09-1.69,1.91-2.34,.82-.65,1.82-1.14,2.99-1.49,1.17-.34,2.45-.51,3.86-.51,1.21,0,2.41,.14,3.6,.43,1.19,.29,2.24,.71,3.17,1.29,.42,.26,.71,.59,.87,.99,.17,.4,.22,.81,.17,1.24s-.22,.79-.5,1.09-.62,.49-1.04,.58c-.42,.09-.92-.01-1.52-.3-.71-.37-1.47-.64-2.29-.81-.83-.17-1.67-.25-2.53-.25-.92,0-1.71,.12-2.36,.36s-1.14,.58-1.47,1.01c-.33,.43-.49,.94-.49,1.54s.22,1.12,.68,1.52c.45,.4,1.25,.71,2.39,.96l3.7,.79c2.18,.46,3.8,1.2,4.87,2.23,1.07,1.02,1.6,2.37,1.6,4.04,0,1.1-.23,2.1-.69,2.99-.46,.89-1.11,1.65-1.93,2.28-.83,.63-1.81,1.11-2.97,1.45-1.15,.34-2.47,.51-3.94,.51Z"/><path class="af" d="M406.99,352.78c-.86,0-1.52-.23-1.98-.69-.46-.46-.69-1.13-.69-2.01v-17.85c0-.88,.23-1.55,.69-2.01,.46-.46,1.12-.69,1.98-.69h11.52c.66,0,1.16,.17,1.5,.51,.34,.34,.51,.83,.51,1.47s-.17,1.16-.51,1.5c-.34,.34-.84,.51-1.5,.51h-9.27v5.45h8.55c.68,0,1.19,.17,1.52,.51s.5,.84,.5,1.5-.17,1.13-.5,1.47c-.33,.34-.84,.51-1.52,.51h-8.55v5.84h9.27c.66,0,1.16,.17,1.5,.51,.34,.34,.51,.84,.51,1.5s-.17,1.13-.51,1.47c-.34,.34-.84,.51-1.5,.51h-11.52Z"/><path class="af" d="M426.66,353.04c-.75,0-1.32-.2-1.72-.61-.39-.41-.59-1-.59-1.77v-19.04c0-.79,.21-1.39,.64-1.78,.43-.4,1.02-.59,1.77-.59,.66,0,1.18,.12,1.57,.36s.73,.66,1.04,1.25l7.62,13.93h-1.05l7.62-13.93c.31-.59,.65-1.01,1.04-1.25s.91-.36,1.57-.36c.73,0,1.29,.2,1.7,.59,.41,.4,.61,.99,.61,1.78v19.04c0,.77-.2,1.36-.59,1.77-.4,.41-.98,.61-1.75,.61-.73,0-1.29-.2-1.7-.61-.41-.41-.61-1-.61-1.77v-13.33h.73l-6.17,10.99c-.24,.42-.51,.73-.81,.92-.3,.2-.68,.3-1.14,.3-.51,0-.91-.1-1.22-.31-.31-.21-.58-.51-.82-.91l-6.17-11.02h.76v13.36c0,.77-.19,1.36-.58,1.77-.38,.41-.96,.61-1.73,.61Z"/><path class="af" d="M404.5,410.78c-1.77,0-3.06-.41-3.85-1.22-.79-.82-1.19-2.02-1.19-3.61,0-1.07,.26-2.04,.77-2.91,.51-.86,1.21-1.76,2.1-2.69l13.09-13.93c2.05-2.1,3.5-3.96,4.34-5.56,.84-1.61,1.26-3.25,1.26-4.94,0-2.01-.66-3.53-1.99-4.58-1.33-1.05-3.23-1.57-5.71-1.57-1.4,0-2.81,.17-4.23,.52-1.42,.35-2.91,.99-4.45,1.92-1.03,.56-1.97,.76-2.84,.6-.86-.16-1.6-.57-2.21-1.23-.61-.65-1-1.41-1.19-2.27-.19-.86-.09-1.74,.28-2.62s1.07-1.63,2.1-2.24c2.05-1.26,4.28-2.19,6.68-2.8s4.84-.91,7.32-.91c3.64,0,6.72,.55,9.24,1.64,2.52,1.1,4.43,2.68,5.74,4.76s1.96,4.63,1.96,7.66c0,1.96-.31,3.88-.95,5.74-.63,1.87-1.59,3.75-2.87,5.63-1.29,1.89-2.95,3.91-5.01,6.06l-12.25,12.46v-2.8h18.9c1.49,0,2.63,.37,3.43,1.12,.79,.75,1.19,1.84,1.19,3.29s-.4,2.56-1.19,3.33c-.79,.77-1.94,1.16-3.43,1.16h-25.06Z"/></g></g></g><g id="j"/><g id="k"/><g id="l"/><g id="m"/><g id="n"/><g id="o"/><g id="p"/><g id="q"/><g id="r"/><g id="s"/><g id="t"/><g id="u"><g id="v"/></g><g id="w"/><g id="x"/><g id="y"/><g id="a`"/><g id="aa"/><g id="ab"/><g id="ac"/></svg>