<svg viewBox="0 0 512 452.12" xmlns="http://www.w3.org/2000/svg"><path d="m64.45 363.87c-.77-2.34-1.02-4.71-1.02-7.15.06-60.73.07-121.47.09-182.2 2.78-1.86 6.08-1.28 9.19-1.28 53.96-.04 107.92-.03 161.88-.03 68.33 0 136.66 0 204.99.03 3.11 0 6.4-.58 9.19 1.28 0 63.13-.02 126.26-.03 189.39-5.19 20.22-21.11 31.12-45.5 31.12-98.61 0-197.22.04-295.83-.03-19.27-.01-33.01-7.85-41.47-22.5-1.55-2.68-2.5-5.57-1.5-8.64z" fill="#e8edee"/><path d="m405.83 65.12c23.64-.04 42.83 15.95 42.95 36.04.11 18.2-.07 36.41-.12 54.61-2.59 1.91-5.75 1.2-8.67 1.21-93.8.04-187.61.03-281.41.03-29.09 0-58.19.02-87.28-.03-2.61 0-5.41.55-7.67-1.21-.03-18.91-.52-37.83.03-56.73.55-18.78 20.13-33.89 42.79-33.92 1.21.74 1.58 1.88 1.59 3.01.08 10.82.72 21.65-.32 32.45-1.31 2.36-2.27 1.49-3.04-.29-.74-1.73.09-3.64-.73-5.42-6.32 4.71-9.94 17.22-4.07 26.99 5.92 9.85 15.38 15.1 28.62 14.83 12.81-.26 22.04-5.58 27.2-15.33 5.27-9.97 3.32-19.45-5.05-27.85-1.19-1.19-2.56-2.26-3.02-3.87-.84-7.04-.38-14.09-.31-21.13.01-1.27.27-2.55 1.61-3.4h214.43c1.21.75 1.58 1.88 1.59 3.02.08 10.82.72 21.65-.32 32.45-1.31 2.36-2.27 1.5-3.04-.29-.74-1.73.09-3.64-.73-5.42-6.32 4.71-9.94 17.22-4.07 26.99 5.92 9.85 15.38 15.1 28.62 14.83 12.81-.26 22.04-5.58 27.2-15.33 5.27-9.97 3.32-19.45-5.05-27.85-1.19-1.19-2.56-2.26-3.02-3.87-.84-7.04-.38-14.09-.31-21.13.01-1.27.27-2.55 1.61-3.4z" fill="#ffa939"/><path d="m64.45 363.87c1.41 12.59 16.78 26.43 32.07 28.99 3.95.66 7.9.89 11.91.89 98.06-.02 196.13-.22 294.19.14 21.77.08 40.25-11.44 45.02-28.16.18-.64.72-1.21 1.09-1.81-.18 6.11.63 12.21-.76 18.32-3.93 17.3-20.7 29.52-41.31 29.53-100.33.05-200.65.05-300.98 0-23.59-.01-42.21-16.04-42.15-36.21.01-3.88-1.28-7.9.9-11.67z" fill="#b3babe"/><path d="m448.77 174.52c-1.17.03-2.34.1-3.51.1-126.08 0-252.15 0-378.23 0-1.17 0-2.34-.06-3.51-.1.03-5.94.07-11.89.1-17.83 1.72-.87 3.6-.43 5.4-.43 124.75-.02 249.5-.02 374.24 0 1.8 0 3.68-.43 5.4.43.03 5.94.07 11.89.1 17.83z" fill="#ce852e"/><path d="m148.93 65.12c.09 8.57.17 17.14.26 25.71 1.99 9.53 2.54 18.81-7.38 25.79-6.58 4.64-14.14 5.57-22.06 3.05-7.56-2.4-12.14-7.25-14.07-13.9-.4-1.38-.55-2.82.55-4.09.08-12.19.15-24.37.22-36.56.02-6.27-.01-12.54.09-18.81.16-9.92 9.64-17.93 21.15-17.95 11.47-.02 20.99 8.03 21.15 17.95.1 6.27.06 12.54.09 18.81z" fill="#b3babe"/><path d="m405.83 65.12.26 25.71c1.58 7.67 2.53 15.31-3.46 22.08-5.23 5.91-12.31 8.88-20.93 7.79-9.36-1.19-15.65-6-18.73-13.68-.7-1.75-1.22-3.59.15-5.33.08-12.18.16-24.37.23-36.56.02-6.41-.01-12.81.09-19.22.15-9.88 9.79-17.75 21.4-17.54 11.66.21 20.74 7.79 20.9 17.54.1 6.41.07 12.81.09 19.22z" fill="#b3babe"/><path d="m448.66 156.69c-128.35 0-256.69 0-385.04 0v-.92h385.03v.92z" fill="#ba752b"/><path d="m363.13 101.67c2.39 15.67 20.07 23.27 33.86 14.46 5.64-3.6 8.84-8.44 8.85-14.63 0-3.56.16-7.12.25-10.68 13.23 8.86 14.63 28.52.71 39.7-13.28 10.67-34.51 9.84-46.85-2.19-10.64-10.37-9.68-28.6 2.17-36.22 1.19 3.2-.43 6.54 1.01 9.56z" fill="#ce852e"/><path d="m106.23 101.67c1.91 13.39 14.03 20.88 27.95 17.27 8.23-2.13 14.33-8.8 14.69-16.17.19-3.98.21-7.97.31-11.95 13.23 8.86 14.63 28.52.71 39.7-13.28 10.67-34.52 9.83-46.85-2.19-10.63-10.37-9.67-28.62 2.17-36.22 1.2 3.2-.45 6.54 1.01 9.56z" fill="#ce852e"/><g fill="#515151"><path d="m176.71 322.76c-1.45 0-2.62-.34-3.5-1.02s-1.58-1.75-2.07-3.2l-13.74-38.62c-.64-1.72-.53-3.18.31-4.39.84-1.2 2.28-1.8 4.32-1.8 1.5 0 2.65.34 3.47 1.02s1.45 1.75 1.9 3.2l11.15 33.39h-2.92l11.9-33.39c.5-1.45 1.16-2.52 1.97-3.2s1.88-1.02 3.2-1.02 2.29.34 3.06 1.02 1.4 1.77 1.9 3.26l11.36 33.32h-2.52l11.36-33.39c.5-1.45 1.16-2.52 1.97-3.2.82-.68 1.93-1.02 3.33-1.02 1.77 0 3.06.6 3.88 1.8s.91 2.66.27 4.39l-13.8 38.62c-.59 1.45-1.3 2.52-2.14 3.2s-1.98 1.02-3.43 1.02-2.62-.34-3.5-1.02-1.58-1.75-2.07-3.2l-10.74-30.4h1.63l-10.95 30.4c-.54 1.45-1.24 2.52-2.07 3.2-.84.68-2.01 1.02-3.5 1.02z"/><path d="m240.7 322.22c-1.77 0-3.13-.48-4.08-1.43s-1.43-2.33-1.43-4.15v-36.79c0-1.81.48-3.2 1.43-4.15s2.31-1.43 4.08-1.43h23.73c1.36 0 2.39.35 3.09 1.05s1.05 1.71 1.05 3.03-.35 2.39-1.05 3.09-1.73 1.05-3.09 1.05h-19.11v11.22h17.61c1.4 0 2.45.35 3.13 1.05s1.02 1.73 1.02 3.09-.34 2.32-1.02 3.03c-.68.7-1.72 1.05-3.13 1.05h-17.61v12.04h19.11c1.36 0 2.39.35 3.09 1.05s1.05 1.73 1.05 3.09-.35 2.32-1.05 3.03-1.73 1.05-3.09 1.05h-23.73z"/><path d="m281.84 322.22c-1.77 0-3.13-.48-4.08-1.43s-1.43-2.33-1.43-4.15v-36.79c0-1.81.48-3.2 1.43-4.15s2.31-1.43 4.08-1.43h23.73c1.36 0 2.39.35 3.09 1.05s1.05 1.71 1.05 3.03-.35 2.39-1.05 3.09-1.73 1.05-3.09 1.05h-19.11v11.22h17.61c1.4 0 2.45.35 3.13 1.05s1.02 1.73 1.02 3.09-.34 2.32-1.02 3.03c-.68.7-1.72 1.05-3.13 1.05h-17.61v12.04h19.11c1.36 0 2.39.35 3.09 1.05s1.05 1.73 1.05 3.09-.35 2.32-1.05 3.03-1.73 1.05-3.09 1.05h-23.73z"/><path d="m322.71 322.76c-1.68 0-2.97-.46-3.88-1.39s-1.36-2.25-1.36-3.98v-38.35c0-1.72.45-3.04 1.36-3.94.91-.91 2.2-1.36 3.88-1.36s3.04.45 3.94 1.36c.91.91 1.36 2.22 1.36 3.94v16.12h.14l18.09-18.9c.77-.82 1.59-1.44 2.45-1.87s1.81-.65 2.86-.65c1.59 0 2.73.41 3.43 1.22.7.82 1.01 1.77.92 2.86s-.59 2.09-1.5 2.99l-18.16 18.56.07-4.42 18.97 20.26c1.09 1.09 1.64 2.23 1.67 3.43.02 1.2-.36 2.19-1.16 2.96-.79.77-1.96 1.16-3.5 1.16-1.31 0-2.36-.27-3.13-.82-.77-.54-1.66-1.31-2.65-2.31l-18.36-19.31h-.14v17.07c0 1.72-.44 3.05-1.33 3.98s-2.21 1.39-3.98 1.39z"/><path d="m167.88 254.26c-1.77 0-3.13-.48-4.08-1.43s-1.43-2.33-1.43-4.15v-36.79c0-1.81.48-3.2 1.43-4.15s2.31-1.43 4.08-1.43h23.73c1.36 0 2.39.35 3.09 1.05s1.05 1.71 1.05 3.03-.35 2.39-1.05 3.09-1.73 1.05-3.09 1.05h-19.11v11.22h17.61c1.4 0 2.45.35 3.13 1.05s1.02 1.73 1.02 3.09-.34 2.32-1.02 3.03c-.68.7-1.72 1.05-3.13 1.05h-17.61v12.04h19.11c1.36 0 2.39.35 3.09 1.05s1.05 1.73 1.05 3.09-.35 2.32-1.05 3.03-1.73 1.05-3.09 1.05h-23.73z"/><path d="m206.3 254.81c-1.36 0-2.48-.36-3.37-1.09s-1.39-1.64-1.53-2.75.25-2.25 1.16-3.43l14.96-19.92v4.69l-14.42-19.24c-.86-1.13-1.24-2.27-1.12-3.4.11-1.13.61-2.06 1.5-2.79.88-.72 1.98-1.09 3.3-1.09 1.13 0 2.12.26 2.96.78s1.69 1.37 2.55 2.55l11.15 15.57h-3.4l11.22-15.57c.86-1.18 1.71-2.03 2.55-2.55s1.85-.78 3.03-.78c1.36 0 2.48.35 3.37 1.05.88.7 1.38 1.62 1.5 2.75.11 1.13-.31 2.29-1.26 3.47l-14.42 19.24v-4.69l15.03 19.92c.86 1.18 1.23 2.32 1.12 3.43s-.61 2.03-1.5 2.75c-.88.72-2.03 1.09-3.43 1.09-1.09 0-2.05-.27-2.89-.82-.84-.54-1.71-1.4-2.62-2.58l-11.7-16.12h3.47l-11.7 16.12c-.86 1.18-1.72 2.04-2.58 2.58s-1.84.82-2.92.82z"/><path d="m250.3 254.81c-1.27 0-2.3-.28-3.09-.85s-1.28-1.35-1.46-2.35 0-2.11.54-3.33l17.48-38.22c.72-1.5 1.6-2.58 2.62-3.26s2.16-1.02 3.43-1.02 2.47.34 3.47 1.02 1.86 1.77 2.58 3.26l17.48 38.22c.59 1.27.8 2.39.65 3.37-.16.98-.63 1.75-1.43 2.31-.79.57-1.78.85-2.96.85-1.54 0-2.73-.35-3.57-1.05s-1.58-1.82-2.21-3.37l-4.08-9.45 4.22 2.92h-28.36l4.22-2.92-4.01 9.45c-.73 1.54-1.45 2.66-2.18 3.37-.73.7-1.84 1.05-3.33 1.05zm19.45-37.26-8.77 20.81-1.84-2.72h21.28l-1.77 2.72-8.77-20.81h-.14z"/><path d="m305.11 254.81c-1.54 0-2.72-.42-3.54-1.26s-1.22-2.05-1.22-3.64v-39.24c0-1.63.44-2.86 1.33-3.67.88-.82 2.1-1.22 3.64-1.22 1.36 0 2.44.25 3.23.75s1.51 1.36 2.14 2.58l15.71 28.7h-2.18l15.71-28.7c.63-1.22 1.35-2.08 2.14-2.58s1.87-.75 3.23-.75c1.5 0 2.66.41 3.5 1.22.84.82 1.26 2.04 1.26 3.67v39.24c0 1.59-.41 2.8-1.22 3.64-.82.84-2.02 1.26-3.6 1.26-1.5 0-2.66-.42-3.5-1.26s-1.26-2.05-1.26-3.64v-27.47h1.5l-12.72 22.64c-.5.86-1.05 1.5-1.67 1.9-.61.41-1.39.61-2.35.61-1.04 0-1.88-.21-2.52-.65-.64-.43-1.2-1.05-1.7-1.87l-12.72-22.71h1.56v27.54c0 1.59-.4 2.8-1.19 3.64s-1.98 1.26-3.57 1.26z"/></g><circle cx="420.26" cy="361.55" fill="#f98888" r="73.16"/><path d="m395.91 354.28c-.92 0-1.87-.07-2.84-.2s-1.88-.33-2.72-.59c-.85-.26-1.61-.59-2.29-.99-.51-.26-.86-.61-1.06-1.04s-.26-.86-.2-1.3c.07-.44.23-.83.48-1.17s.6-.56 1.04-.66.91-.02 1.42.25c.92.48 1.92.85 2.99 1.09s2.13.36 3.18.36c1.58 0 2.73-.24 3.43-.73.7-.48 1.06-1.1 1.06-1.85 0-.66-.25-1.17-.74-1.53-.5-.36-1.35-.67-2.56-.91l-3.73-.79c-2.11-.46-3.67-1.23-4.69-2.29s-1.52-2.47-1.52-4.21c0-1.1.23-2.11.68-3.02s1.09-1.69 1.91-2.34 1.82-1.14 2.99-1.49c1.17-.34 2.45-.51 3.86-.51 1.21 0 2.41.14 3.6.43s2.24.71 3.17 1.29c.42.26.71.59.87.99.17.4.22.81.17 1.24s-.22.79-.5 1.09-.62.49-1.04.58-.92-.01-1.52-.3c-.7-.37-1.47-.64-2.29-.81s-1.67-.25-2.52-.25c-.92 0-1.71.12-2.36.36s-1.14.58-1.47 1.01-.5.94-.5 1.54.23 1.12.68 1.52 1.25.71 2.39.96l3.7.79c2.18.46 3.8 1.2 4.87 2.23 1.07 1.02 1.6 2.37 1.6 4.04 0 1.1-.23 2.1-.69 2.99s-1.11 1.65-1.93 2.28-1.81 1.11-2.97 1.45-2.47.51-3.94.51z" fill="#fff"/><path d="m411.42 353.95c-.86 0-1.52-.23-1.98-.69s-.69-1.13-.69-2.01v-17.85c0-.88.23-1.55.69-2.01s1.12-.69 1.98-.69h11.52c.66 0 1.16.17 1.5.51s.51.83.51 1.47-.17 1.16-.51 1.5-.84.51-1.5.51h-9.27v5.45h8.55c.68 0 1.19.17 1.52.51s.5.84.5 1.5-.17 1.13-.5 1.47-.84.51-1.52.51h-8.55v5.84h9.27c.66 0 1.16.17 1.5.51s.51.84.51 1.5-.17 1.13-.51 1.47-.84.51-1.5.51h-11.52z" fill="#fff"/><path d="m431.09 354.22c-.75 0-1.32-.2-1.72-.61s-.59-1-.59-1.77v-19.04c0-.79.21-1.39.64-1.78.43-.4 1.02-.59 1.77-.59.66 0 1.18.12 1.57.36.38.24.73.66 1.04 1.25l7.62 13.93h-1.06l7.62-13.93c.31-.59.65-1.01 1.04-1.25s.91-.36 1.57-.36c.73 0 1.29.2 1.7.59.41.4.61.99.61 1.78v19.04c0 .77-.2 1.36-.59 1.77-.4.41-.98.61-1.75.61-.73 0-1.29-.2-1.7-.61s-.61-1-.61-1.77v-13.33h.73l-6.17 10.99c-.24.42-.51.73-.81.92-.3.2-.68.3-1.14.3-.51 0-.91-.1-1.22-.31s-.58-.51-.82-.91l-6.17-11.02h.76v13.36c0 .77-.19 1.36-.58 1.77-.38.41-.96.61-1.73.61z" fill="#fff"/><path d="m410.18 411.95c-1.45 0-2.55-.4-3.33-1.19-.77-.79-1.15-1.89-1.15-3.29s.38-2.54 1.15-3.29 1.88-1.12 3.33-1.12h7.14v-31.57h5.11l-10.22 6.23c-1.07.61-2.07.85-2.98.74-.91-.12-1.69-.5-2.34-1.16-.65-.65-1.08-1.43-1.29-2.34s-.13-1.82.25-2.73c.37-.91 1.07-1.69 2.1-2.35l9.73-5.88c.98-.61 1.97-1.08 2.97-1.43s2-.53 2.98-.53c1.4 0 2.51.35 3.32 1.05.82.7 1.23 1.77 1.23 3.22v36.75h6.37c1.45 0 2.57.37 3.36 1.12s1.19 1.84 1.19 3.29-.4 2.56-1.19 3.33-1.91 1.16-3.36 1.16h-24.36z" fill="#fff"/></svg>